<svg width="265" height="62" viewBox="0 0 265 62" fill="none" xmlns="http://www.w3.org/2000/svg">
<path d="M260.719 7.05198C263.452 7.44914 265.345 9.98641 264.948 12.7191L258.476 57.2513C258.079 59.984 255.541 61.8773 252.809 61.4802C250.076 61.083 248.183 58.5457 248.58 55.813L254.333 16.2289L214.749 10.4759C212.016 10.0787 210.123 7.54147 210.52 4.80876C210.917 2.07605 213.454 0.182709 216.187 0.579868L260.719 7.05198ZM5.95798 7.96883C48.2732 39.0187 157.587 82.1831 257.01 7.99273L262.99 16.0073C158.541 93.949 44.1134 48.3697 0.0420215 16.0312L5.95798 7.96883Z" fill="#605DEC"/>
</svg>
