<svg width="265" height="62" viewBox="0 0 265 62" fill="none" xmlns="http://www.w3.org/2000/svg">
<path d="M260.719 54.948C263.452 54.5509 265.345 52.0136 264.948 49.2809L258.476 4.74874C258.079 2.01602 255.541 0.122682 252.809 0.519843C250.076 0.917004 248.183 3.45427 248.58 6.18698L254.333 45.7711L214.749 51.5241C212.016 51.9213 210.123 54.4585 210.52 57.1912C210.917 59.924 213.454 61.8173 216.187 61.4201L260.719 54.948ZM5.95798 54.0312C48.2732 22.9813 157.587 -20.1831 257.01 54.0073L262.99 45.9927C158.541 -31.949 44.1134 13.6303 0.0420215 45.9688L5.95798 54.0312Z" fill="#605DEC"/>
</svg>
