<svg width="40" height="40" viewBox="0 0 40 40" fill="none" xmlns="http://www.w3.org/2000/svg">
<path d="M5.27444 18.2801C5.27444 18.2801 19.2798 12.4263 24.1371 10.365C25.9992 9.54059 32.3137 6.90215 32.3137 6.90215C32.3137 6.90215 35.2282 5.74793 34.9853 8.55115C34.9043 9.70548 34.2567 13.7454 33.6091 18.1153C32.6375 24.299 31.5851 31.0598 31.5851 31.0598C31.5851 31.0598 31.4232 32.9561 30.047 33.2859C28.6708 33.6157 26.4039 32.1317 25.9992 31.8018C25.6753 31.5545 19.9275 27.8443 17.8226 26.0304C17.2559 25.5357 16.6083 24.5464 17.9035 23.392C20.818 20.6712 24.2991 17.2908 26.4039 15.1471C27.3754 14.1577 28.3468 11.8491 24.299 14.6524C18.5512 18.6924 12.8843 22.4851 12.8843 22.4851C12.8843 22.4851 11.589 23.3095 9.16032 22.5675C6.73156 21.8255 3.8981 20.8361 3.8981 20.8361C3.8981 20.8361 1.95527 19.5994 5.27444 18.2801Z" stroke="white" stroke-width="2"/>
</svg>
