<svg width="80" height="81" viewBox="0 0 80 81" fill="none" xmlns="http://www.w3.org/2000/svg">
<path d="M16.7998 25.2718V78.0489H63.5591V25.2718H16.7998ZM30.6343 59.2337C31.2128 60.2425 32.7084 60.821 34.7261 60.821V66.0063C30.7966 66.0063 27.6713 64.4754 26.1263 61.8157C24.5813 59.1561 24.8352 55.678 26.7965 52.2706L27.8124 50.521L25.0822 48.9477L32.9412 47.0853L35.2411 54.8456L32.3204 53.1524L31.3116 54.895C30.2957 56.6446 30.0487 58.246 30.6343 59.2337ZM36.779 45.4133L32.271 42.8101C34.2393 39.4096 37.1318 37.4554 40.2006 37.4554C43.2695 37.4554 46.1619 39.4096 48.1302 42.8101L49.4495 45.1029L52.6806 43.5155L49.8587 51.0854L42.1548 48.7008L44.7721 47.4098L43.6081 45.4133C42.5993 43.6637 41.3506 42.6619 40.1865 42.6619C39.0225 42.6619 37.7949 43.6637 36.779 45.4133ZM54.275 61.8369C52.7794 64.4966 49.6047 66.0063 45.6752 66.0063H44.3136V69.2727L38.7685 63.4031L44.3136 57.5405V60.8069H45.7245C47.7422 60.8069 49.252 60.2284 49.8163 59.2196C50.3807 58.2107 50.155 56.6304 49.1461 54.8808L53.6542 52.2776C55.6013 55.6992 55.8129 59.1772 54.275 61.8369Z" fill="#605DEC"/>
<path d="M57.4637 13.3279C57.458 11.0714 56.7906 8.86622 55.5442 6.98528C54.2977 5.10434 52.527 3.63029 50.4512 2.74566V22.8872H57.4637V13.3279Z" fill="#605DEC"/>
<path d="M29.908 9.62403V2.72442C27.8322 3.60905 26.0614 5.0831 24.815 6.96404C23.5686 8.84498 22.9012 11.0502 22.8955 13.3066V22.8871H29.908V9.62403Z" fill="#605DEC"/>
<path d="M48.0667 2.0049C47.3686 1.87503 46.6602 1.80892 45.9502 1.80737L34.4368 1.80737C33.7268 1.80934 33.0184 1.87546 32.3203 2.0049V8.1567H48.0667V2.0049Z" fill="#605DEC"/>
</svg>
