<svg width="969" height="704" viewBox="0 0 969 704" fill="none" xmlns="http://www.w3.org/2000/svg">
<path d="M177.238 41.972C101.775 105.197 198.383 191.887 146.337 227.036C94.2946 262.184 -119.246 327.533 90.4679 475.286C300.182 623.038 303.698 717.062 458.168 631.728C612.637 546.389 602.105 529.962 725.867 594.179C849.63 658.395 982.919 567.803 941.192 454.572C899.466 341.336 871.089 341.924 923.706 271.88C976.324 201.836 901.76 1.7011 722.962 149.604C544.159 297.507 469.466 159.942 451.679 102.203C433.887 44.4556 296.492 -57.9471 177.238 41.972Z" fill="url(#paint0_linear_516_27222)"/>
<path d="M682.529 574.279C682.529 574.279 859.336 362.565 901.691 165.762C904.54 152.532 892.493 141.179 880.445 145.792C799.882 176.622 570.041 291.974 682.529 574.279Z" fill="#BDD0FB"/>
<path d="M681.31 541.665C681.168 542.594 679.883 542.463 679.906 541.524C680.739 506.916 700.656 360.655 835.192 211.7C835.626 211.221 836.335 211.86 835.945 212.376C807.091 250.415 703.651 395.085 681.31 541.665Z" fill="#91B3FA"/>
<path d="M680.907 672.682C680.907 672.682 887.907 516.922 967.273 344.233C972.608 332.627 963.759 319.349 951.659 320.865C870.715 331.017 634.21 385.351 680.907 672.682Z" fill="#91B3FA"/>
<path d="M686.428 642.181C686.109 643.007 684.944 642.594 685.157 641.73C692.982 609.849 741.252 478.864 896.285 371.6C896.782 371.257 897.313 372.008 896.844 372.398C862.354 401.045 737.007 511.455 686.428 642.181Z" fill="#BDD0FB"/>
<path d="M307.704 580.657C307.704 580.657 130.897 368.943 88.5419 172.14C85.6928 158.91 97.7405 147.557 109.788 152.17C190.351 183.001 420.196 298.357 307.704 580.657Z" fill="#BDD0FB"/>
<path d="M308.923 548.043C309.065 548.973 310.35 548.841 310.328 547.902C309.495 513.294 289.578 367.033 155.046 218.078C154.612 217.599 153.903 218.238 154.293 218.754C183.143 256.793 286.587 401.468 308.923 548.043Z" fill="#91B3FA"/>
<path d="M706.847 662.616H630.75L639.08 264.973L638.983 253.724L639.182 240.601L639.43 229.352L641.725 160.041L641.734 158.234H701.538V264.973L706.847 662.616Z" fill="#7D97F4"/>
<path d="M710.117 150.626C710.117 148.557 708.53 146.876 706.576 146.876H634.29C632.336 146.876 630.75 148.557 630.75 150.626V156.76C630.75 158.83 632.336 160.51 634.29 160.51H706.576C708.53 160.51 710.117 158.83 710.117 156.76V150.626Z" fill="url(#paint1_linear_516_27222)"/>
<path d="M724.038 667.891C724.038 665.093 721.898 662.827 719.257 662.827H621.608C618.967 662.827 616.827 665.093 616.827 667.891V676.174C616.827 678.971 618.967 681.238 621.608 681.238H719.257C721.898 681.238 724.038 678.971 724.038 676.174V667.891Z" fill="url(#paint2_linear_516_27222)"/>
<path d="M701.538 230.938V240.029H638.938L639.31 230.938H701.538Z" fill="#91B3FA"/>
<path d="M701.538 251.386V265.02H638.104L638.494 251.386H701.538Z" fill="#91B3FA"/>
<path d="M587.941 662.616H511.845L520.175 264.973L520.077 253.724L520.277 240.601L520.525 229.352L522.82 160.041L522.829 158.234H582.633V264.973L587.941 662.616Z" fill="#7D97F4"/>
<path d="M591.211 150.626C591.211 148.557 589.625 146.876 587.671 146.876H515.385C513.431 146.876 511.845 148.557 511.845 150.626V156.76C511.845 158.83 513.431 160.51 515.385 160.51H587.671C589.625 160.51 591.211 158.83 591.211 156.76V150.626Z" fill="url(#paint3_linear_516_27222)"/>
<path d="M605.133 667.891C605.133 665.093 602.993 662.827 600.352 662.827H502.704C500.063 662.827 497.923 665.093 497.923 667.891V676.174C497.923 678.971 500.063 681.238 502.704 681.238H600.352C602.993 681.238 605.133 678.971 605.133 676.174V667.891Z" fill="url(#paint4_linear_516_27222)"/>
<path d="M582.633 230.938V240.029H520.033L520.405 230.938H582.633Z" fill="#91B3FA"/>
<path d="M582.633 251.386V265.02H519.2L519.59 251.386H582.633Z" fill="#91B3FA"/>
<path d="M654.508 390.589L565.158 455.576V405.091C565.158 397.478 557.865 392.865 552.286 396.953L472.317 455.576V405.485C472.317 397.774 464.918 393.114 459.281 397.272L379.481 456.149V407.067C379.481 398.412 371.447 392.907 364.845 397.037L297.974 438.873C286.821 445.852 280.011 459.448 280.352 474.063L285.044 675.085C285.177 680.755 289.524 685.251 294.753 685.228L657.264 683.43C662.43 683.407 666.631 678.802 666.649 673.171L667.451 398.417C667.451 398.051 667.437 397.69 667.406 397.338C666.786 390.349 659.661 386.839 654.508 390.589Z" fill="url(#paint5_linear_516_27222)"/>
<path opacity="0.5" d="M323.434 506.062H311.905C311.368 506.062 310.854 506.287 310.478 506.498C310.106 506.709 309.906 507.052 309.928 507.348L311.329 526.994C311.368 527.576 312.241 528.449 313.305 528.449H324.55C325.087 528.449 325.596 527.942 325.968 527.731C326.341 527.519 326.54 527.041 326.522 526.745L325.406 507.31C325.375 506.728 324.502 506.062 323.434 506.062Z" fill="#91B3FA"/>
<path opacity="0.5" d="M373.326 506.062H361.797C361.269 506.062 360.76 506.282 360.388 506.489C360.016 506.695 359.812 507.029 359.821 507.32L360.308 526.966C360.321 527.562 361.203 528.449 362.284 528.449H373.53C374.057 528.449 374.562 527.947 374.93 527.74C375.302 527.534 375.506 527.064 375.506 526.773L375.302 507.338C375.293 506.747 374.412 506.062 373.326 506.062Z" fill="#91B3FA"/>
<path opacity="0.5" d="M417.192 506.062H405.663C404.577 506.062 403.696 506.648 403.687 507.244L403.372 526.529C403.368 526.82 403.572 527.51 403.944 527.717C404.316 527.923 404.821 528.453 405.348 528.453H416.594C417.671 528.453 418.552 527.59 418.57 526.998L419.168 507.568C419.177 507.277 418.973 506.794 418.601 506.587C418.229 506.381 417.724 506.062 417.192 506.062Z" fill="#91B3FA"/>
<path opacity="0.5" d="M462.485 506.503C462.113 506.292 461.599 506.066 461.059 506.066H449.529C448.462 506.066 447.589 506.639 447.553 507.221L446.437 526.506C446.419 526.801 446.618 527.501 446.991 527.712C447.363 527.923 447.877 528.458 448.408 528.458H459.654C460.713 528.458 461.586 527.609 461.63 527.027L463.03 507.545C463.057 507.249 462.858 506.714 462.485 506.503Z" fill="#91B3FA"/>
<path opacity="0.5" d="M503.302 506.062H491.773C491.237 506.062 490.723 506.287 490.346 506.498C489.974 506.709 489.774 507.052 489.797 507.348L491.197 526.994C491.241 527.576 492.11 528.449 493.173 528.449H504.419C504.955 528.449 505.464 527.942 505.836 527.731C506.209 527.519 506.408 527.041 506.39 526.745L505.274 507.31C505.247 506.728 504.37 506.062 503.302 506.062Z" fill="#91B3FA"/>
<path opacity="0.5" d="M553.193 506.062H541.664C541.137 506.062 540.627 506.282 540.255 506.489C539.883 506.695 539.679 507.029 539.688 507.32L540.175 526.966C540.188 527.562 541.07 528.449 542.151 528.449H553.397C553.924 528.449 554.429 527.947 554.797 527.74C555.169 527.534 555.373 527.064 555.373 526.773L555.169 507.338C555.161 506.747 554.279 506.062 553.193 506.062Z" fill="#91B3FA"/>
<path opacity="0.5" d="M597.06 506.062H585.531C584.446 506.062 583.564 506.648 583.555 507.244L583.24 526.529C583.236 526.82 583.44 527.51 583.812 527.717C584.184 527.923 584.689 528.453 585.216 528.453H596.462C597.539 528.453 598.421 527.59 598.438 526.998L599.037 507.568C599.045 507.277 598.842 506.794 598.469 506.587C598.102 506.381 597.592 506.062 597.06 506.062Z" fill="#91B3FA"/>
<path opacity="0.5" d="M642.353 506.503C641.98 506.292 641.466 506.066 640.926 506.066H629.397C628.329 506.066 627.456 506.639 627.42 507.221L626.304 526.506C626.286 526.801 626.485 527.501 626.858 527.712C627.23 527.923 627.744 528.458 628.276 528.458H639.521C640.58 528.458 641.453 527.609 641.497 527.027L642.898 507.545C642.924 507.249 642.725 506.714 642.353 506.503Z" fill="#91B3FA"/>
<path opacity="0.5" d="M323.434 547.926H311.905C311.368 547.926 310.854 548.137 310.478 548.348C310.106 548.559 309.906 548.893 309.928 549.188L311.329 568.36C311.368 568.942 312.241 569.341 313.305 569.341H324.55C325.087 569.341 325.596 569.308 325.968 569.097C326.341 568.886 326.54 568.642 326.522 568.351L325.406 549.047C325.375 548.461 324.502 547.926 323.434 547.926Z" fill="#91B3FA"/>
<path opacity="0.5" d="M373.326 547.926H361.797C361.269 547.926 360.76 548.132 360.388 548.339C360.016 548.545 359.812 548.869 359.821 549.16L360.308 568.332C360.321 568.928 361.203 569.341 362.284 569.341H373.53C374.057 569.341 374.562 569.313 374.93 569.107C375.302 568.9 375.506 568.665 375.506 568.379L375.302 549.076C375.293 548.475 374.412 547.926 373.326 547.926Z" fill="#91B3FA"/>
<path opacity="0.5" d="M417.192 547.926H405.663C404.577 547.926 403.696 548.498 403.687 549.094L403.372 568.374C403.368 568.665 403.572 568.881 403.944 569.088C404.316 569.294 404.821 569.346 405.348 569.346H416.594C417.671 569.346 418.552 568.956 418.57 568.365L419.168 549.174C419.177 548.883 418.973 548.531 418.601 548.325C418.229 548.109 417.724 547.926 417.192 547.926Z" fill="#91B3FA"/>
<path opacity="0.5" d="M462.485 548.348C462.113 548.137 461.599 547.926 461.059 547.926H449.529C448.462 547.926 447.589 548.48 447.553 549.066L446.437 568.346C446.419 568.642 446.618 568.862 446.991 569.074C447.363 569.285 447.877 569.341 448.408 569.341H459.654C460.713 569.341 461.586 568.966 461.63 568.384L463.03 549.146C463.057 548.85 462.858 548.564 462.485 548.348Z" fill="#91B3FA"/>
<path opacity="0.5" d="M503.302 547.926H491.773C491.237 547.926 490.723 548.137 490.346 548.348C489.974 548.559 489.774 548.893 489.797 549.188L491.197 568.36C491.241 568.942 492.11 569.341 493.173 569.341H504.419C504.955 569.341 505.464 569.308 505.836 569.097C506.209 568.886 506.408 568.642 506.39 568.351L505.274 549.047C505.247 548.461 504.37 547.926 503.302 547.926Z" fill="#91B3FA"/>
<path opacity="0.5" d="M553.193 547.926H541.664C541.137 547.926 540.627 548.132 540.255 548.339C539.883 548.545 539.679 548.869 539.688 549.16L540.175 568.332C540.188 568.928 541.07 569.341 542.151 569.341H553.397C553.924 569.341 554.429 569.313 554.797 569.107C555.169 568.9 555.373 568.665 555.373 568.379L555.169 549.076C555.161 548.475 554.279 547.926 553.193 547.926Z" fill="#91B3FA"/>
<path opacity="0.5" d="M597.06 547.926H585.531C584.446 547.926 583.564 548.498 583.555 549.094L583.24 568.374C583.236 568.665 583.44 568.881 583.812 569.088C584.184 569.294 584.689 569.346 585.216 569.346H596.462C597.539 569.346 598.421 568.956 598.438 568.365L599.037 549.174C599.045 548.883 598.842 548.531 598.469 548.325C598.102 548.109 597.592 547.926 597.06 547.926Z" fill="#91B3FA"/>
<path opacity="0.5" d="M642.353 548.348C641.98 548.137 641.466 547.926 640.926 547.926H629.397C628.329 547.926 627.456 548.48 627.42 549.066L626.304 568.346C626.286 568.642 626.485 568.862 626.858 569.074C627.23 569.285 627.744 569.341 628.276 569.341H639.521C640.58 569.341 641.453 568.966 641.497 568.384L642.898 549.146C642.924 548.85 642.725 548.564 642.353 548.348Z" fill="#91B3FA"/>
<path d="M375.374 303.346L447.722 444.402L501.854 342.093C507.858 330.75 508.044 316.961 502.346 305.439L469.021 238.025C466.247 232.416 458.639 232.501 455.981 238.17L432.882 287.388L384.665 286.952C376.685 286.882 371.563 295.916 375.374 303.346Z" fill="url(#paint6_linear_516_27222)"/>
<path d="M491.207 362.218L480.077 370.291C469.296 378.11 456.513 382.24 443.451 382.118L342.785 381.212L342.98 356.816C343.006 353.742 339.16 352.639 337.716 355.31L290.774 442.135L336.754 529.073C338.136 531.683 341.881 530.758 342.027 527.769L343.445 498.882L390.253 499.304C409 499.473 426.307 488.678 435.258 471.233L491.207 362.218Z" fill="url(#paint7_linear_516_27222)"/>
<path d="M259.882 255.385L339.04 118.492L228.325 119.989C216.047 120.153 204.681 126.879 198.11 137.866L159.654 202.14C156.455 207.486 160.328 214.422 166.292 214.028L218.085 210.607L241.839 255.057C245.765 262.416 255.712 262.594 259.882 255.385Z" fill="url(#paint8_linear_516_27222)"/>
<path d="M275.908 382.887L124.401 378.724L180.984 479.536C187.258 490.715 198.438 497.779 210.707 498.314L282.488 501.453C288.461 501.716 292.196 494.695 288.89 489.42L260.196 443.623L284.659 399.609C288.713 392.325 283.888 383.108 275.908 382.887Z" fill="url(#paint9_linear_516_27222)"/>
<path d="M169.854 459.702L168.817 445.453C167.816 431.655 170.829 417.866 177.457 405.941L228.533 314.056L248.379 326.432C250.878 327.99 253.705 325.014 252.243 322.358L204.73 235.894L110.657 234.603C107.83 234.566 106.718 238.461 109.088 240.09L131.996 255.836L108.246 298.563C98.7333 315.675 98.9061 336.949 108.694 353.883L169.854 459.702Z" fill="url(#paint10_linear_516_27222)"/>
<path d="M250.103 119.693L262.27 125.87C274.052 131.849 283.817 141.508 290.256 153.55L339.846 246.346L319.805 258.365C317.28 259.881 318.303 263.96 321.201 263.946L415.659 263.594L463.753 177.946C465.197 175.374 462.565 172.403 460.053 173.76L435.723 186.901L412.664 143.751C403.43 126.47 385.95 115.99 367.207 116.502L250.103 119.693Z" fill="url(#paint11_linear_516_27222)"/>
<path d="M131.615 426.642L130.773 414.736C130.459 410.305 133.507 406.414 137.672 405.912C147.208 404.767 164.049 403.317 177.116 405.265C181.436 405.908 184.631 409.85 184.631 414.468V426.638H173.004L173.394 420.414C173.709 415.383 170.191 410.995 165.45 410.535C160.491 410.056 153.796 409.869 146.565 410.967C141.979 411.666 138.957 416.388 140.083 421.147L141.376 426.638H131.615V426.642Z" fill="url(#paint12_linear_516_27222)"/>
<path d="M223.105 660.959L98.1619 658.152L89.2734 455.802L229.68 447.077L223.105 660.959Z" fill="url(#paint13_linear_516_27222)"/>
<path d="M229.804 443.078L89.4678 449.4L104.874 428.966C107.79 425.094 112.61 422.752 117.817 422.667L202.545 421.283C205.456 421.236 208.265 422.311 210.268 424.239L229.804 443.078Z" fill="url(#paint14_linear_516_27222)"/>
<path d="M98.1611 658.152L223.1 660.954L200.431 679.047C198.685 680.44 196.59 681.191 194.432 681.201L122.496 681.44C119.66 681.449 116.953 680.168 115.016 677.897L98.1611 658.152Z" fill="url(#paint15_linear_516_27222)"/>
<path d="M75.3022 456.21L78.6608 445.575C79.5027 442.909 82.6354 441.023 86.3396 440.948L230.881 438.033C234.944 437.953 238.559 440.065 239.428 443.027L243.345 456.351C244.461 460.157 240.655 463.696 235.431 463.705L83.619 463.931C78.1734 463.935 74.066 460.124 75.3022 456.21Z" fill="url(#paint16_linear_516_27222)"/>
<path d="M115.008 653.726C113.891 653.726 112.969 652.797 112.921 651.61L105.667 481.662C105.614 480.399 106.562 479.348 107.754 479.348C108.871 479.348 109.792 480.277 109.841 481.465L117.095 651.413C117.152 652.675 116.199 653.726 115.008 653.726Z" fill="url(#paint17_linear_516_27222)"/>
<path d="M134.291 653.774C133.175 653.755 132.267 652.812 132.231 651.629L127.277 481.587C127.242 480.324 128.203 479.287 129.395 479.306C130.512 479.325 131.42 480.268 131.456 481.451L136.409 651.493C136.449 652.75 135.483 653.792 134.291 653.774Z" fill="url(#paint18_linear_516_27222)"/>
<path d="M206.129 653.726C207.246 653.726 208.167 652.797 208.216 651.61L215.47 481.662C215.523 480.399 214.574 479.348 213.383 479.348C212.266 479.348 211.344 480.277 211.296 481.465L204.042 651.413C203.989 652.675 204.937 653.726 206.129 653.726Z" fill="url(#paint19_linear_516_27222)"/>
<path d="M186.846 653.773C187.963 653.755 188.871 652.811 188.907 651.629L193.861 481.587C193.896 480.324 192.935 479.287 191.743 479.306C190.626 479.324 189.718 480.268 189.682 481.451L184.728 651.492C184.693 652.75 185.655 653.792 186.846 653.773Z" fill="url(#paint20_linear_516_27222)"/>
<path d="M159.774 653.727H158.334C157.961 653.727 157.66 653.407 157.66 653.013V482.525C157.66 482.131 157.961 481.812 158.334 481.812H159.774C160.146 481.812 160.447 482.131 160.447 482.525V653.013C160.447 653.407 160.146 653.727 159.774 653.727Z" fill="url(#paint21_linear_516_27222)"/>
<path d="M169.313 507.226L179.154 526.412L186.518 512.497C187.333 510.953 187.36 509.08 186.584 507.512L182.052 498.342C181.675 497.577 180.638 497.591 180.279 498.361L177.138 505.053L170.58 504.992C169.49 504.987 168.794 506.217 169.313 507.226Z" fill="#91B3FA"/>
<path d="M185.069 515.233L183.554 516.331C182.087 517.396 180.35 517.955 178.573 517.941L164.882 517.819L164.908 514.5C164.913 514.083 164.39 513.933 164.191 514.294L157.806 526.102L164.058 537.929C164.244 538.286 164.753 538.159 164.776 537.751L164.97 533.823L171.338 533.879C173.885 533.902 176.243 532.433 177.461 530.059L185.069 515.233Z" fill="#BDD0FB"/>
<path d="M153.605 500.702L164.373 482.084L149.312 482.286C147.641 482.309 146.095 483.225 145.204 484.717L139.971 493.461C139.537 494.188 140.064 495.131 140.875 495.08L147.92 494.615L151.151 500.66C151.687 501.66 153.038 501.683 153.605 500.702Z" fill="#91B3FA"/>
<path d="M155.785 518.044L135.177 517.476L142.873 531.19C143.728 532.71 145.248 533.673 146.914 533.743L156.676 534.17C157.486 534.208 157.996 533.25 157.544 532.532L153.64 526.304L156.968 520.315C157.526 519.33 156.871 518.077 155.785 518.044Z" fill="#91B3FA"/>
<path d="M141.358 528.496L141.217 526.558C141.079 524.68 141.491 522.808 142.391 521.184L149.338 508.685L152.037 510.37C152.378 510.582 152.759 510.178 152.564 509.817L146.099 498.055L133.303 497.882C132.917 497.877 132.767 498.407 133.09 498.628L136.205 500.768L132.975 506.578C131.681 508.906 131.703 511.797 133.037 514.102L141.358 528.496Z" fill="#BDD0FB"/>
<path d="M188.8 483.53C188.831 483.563 188.862 483.596 188.893 483.629L188.8 483.53Z" fill="white"/>
<path d="M188.8 483.53C188.831 483.596 188.862 483.662 188.889 483.729L188.8 483.53Z" fill="white"/>
<path d="M152.276 482.248L153.929 483.089C155.533 483.9 156.858 485.215 157.735 486.853L164.479 499.473L161.754 501.106C161.413 501.313 161.55 501.866 161.945 501.866L174.79 501.819L181.33 490.171C181.525 489.819 181.17 489.415 180.825 489.603L177.515 491.391L174.378 485.52C173.124 483.168 170.744 481.746 168.197 481.812L152.276 482.248Z" fill="#BDD0FB"/>
<path d="M943.409 662.441L840.704 663.638L828.289 503.447L943.409 492.686V662.441Z" fill="url(#paint22_linear_516_27222)"/>
<path d="M943.408 492.686L828.288 503.443L840.429 483.238C842.728 479.413 846.628 476.992 850.899 476.738L920.465 472.589C922.857 472.449 925.188 473.392 926.885 475.185L943.408 492.686Z" fill="url(#paint23_linear_516_27222)"/>
<path d="M840.704 663.639L943.408 662.442L926.415 677.79C925.019 678.94 922.482 681.374 920.71 681.44H861.281C858.951 681.525 856.695 680.581 855.047 678.835L840.704 663.639Z" fill="url(#paint24_linear_516_27222)"/>
<path d="M841.219 533.996L852.641 628.575C852.912 630.809 854.782 632.424 856.9 632.259L925.043 626.871C927.13 626.707 928.738 624.867 928.738 622.652V523.737C928.738 521.207 926.656 519.245 924.285 519.532L844.723 529.256C842.512 529.528 840.935 531.659 841.219 533.996Z" fill="#7D97F4"/>
<path opacity="0.37" d="M848.042 506.437L862.713 659.452H880.769V502.852L848.042 506.437Z" fill="white"/>
<path d="M869.329 655.834L735.705 657.444L719.555 441.511L869.329 427.009V655.834Z" fill="url(#paint25_linear_516_27222)"/>
<path d="M869.329 427.009L719.555 441.511L735.346 414.276C738.337 409.118 743.411 405.856 748.972 405.513L839.478 399.919C842.588 399.727 845.623 400.998 847.83 403.415L869.329 427.009Z" fill="url(#paint26_linear_516_27222)"/>
<path d="M735.705 657.443L869.324 655.834L846.544 676.396C844.727 677.949 841.388 680.96 839.084 681.044L762.477 681.435C759.446 681.548 756.508 680.281 754.364 677.925L735.705 657.443Z" fill="url(#paint27_linear_516_27222)"/>
<path d="M736.374 482.69L751.231 610.178C751.581 613.186 754.018 615.368 756.774 615.143L845.427 607.883C848.139 607.662 850.24 605.179 850.24 602.194V468.858C850.24 465.451 847.532 462.799 844.448 463.194L740.938 476.302C738.057 476.663 736.006 479.54 736.374 482.69Z" fill="url(#paint28_linear_516_27222)"/>
<path d="M739.29 555.022C746.366 561.499 755.684 569.961 760.962 574.753C763.447 577.01 766.93 577.371 769.761 575.672L854.946 524.549C857.476 523.033 859.049 520.118 859.049 516.96V493.77C859.049 487.444 853.063 483.253 847.834 485.928L741.014 540.543C735.776 543.214 734.85 550.962 739.29 555.022Z" fill="url(#paint29_linear_516_27222)"/>
<path opacity="0.37" d="M745.249 445.542L764.337 651.802H787.83V440.708L745.249 445.542Z" fill="white"/>
<path d="M534.689 501.887C534.689 501.887 546.815 531.526 554.277 527.575C561.738 523.623 567.337 491.016 567.337 491.016C567.337 491.016 544.019 485.091 534.689 501.887Z" fill="url(#paint30_linear_516_27222)"/>
<path d="M576.909 685.826C576.909 685.826 577.923 691.906 578.418 697.921C578.61 700.274 576.899 702.317 574.672 702.413C567.105 702.745 550.925 703.397 545.119 703.119C544.246 703.076 543.676 702.13 543.999 701.269C544.271 700.547 544.791 699.964 545.458 699.643L572.189 686.628L576.909 685.826Z" fill="url(#paint31_linear_516_27222)"/>
<path d="M577.742 682.254L576.929 689.526C576.929 689.526 572.244 691.836 569.049 689.238L570.987 681.136L577.742 682.254Z" fill="url(#paint32_linear_516_27222)"/>
<path d="M576.767 545.503C577.173 547.404 578.934 640.362 568.18 682.02C568.006 682.7 568.377 683.401 569.078 683.664C570.73 684.285 573.963 685.189 577.839 685.307C579.039 685.344 580.116 684.622 580.453 683.556C583.529 673.894 598.259 625.464 600.182 579.207C602.332 527.517 600.182 577.446 600.182 577.446L598.925 545.493L576.767 545.503Z" fill="url(#paint33_linear_516_27222)"/>
<path d="M607.659 688.997C607.659 688.997 609.274 692.066 610.834 700.221C611.117 701.691 610.142 703.103 608.734 703.247C606.235 703.509 602.388 703.841 599.309 703.82C597.89 703.809 596.779 702.499 596.951 701.007C597.294 698.029 598.355 693.147 601.641 689.339L607.659 688.997Z" fill="url(#paint34_linear_516_27222)"/>
<path d="M609.076 679.645L607.173 690.639C607.173 690.639 605.29 692.12 601.569 691.045L602.478 679.217L609.076 679.645Z" fill="url(#paint35_linear_516_27222)"/>
<path d="M616.957 548.507C625.219 597.395 615.166 669.333 611.776 683.415C611.569 684.279 610.861 684.935 609.969 685.079C608.456 685.325 605.963 685.528 603.508 684.829C602.659 684.588 602.066 683.841 602.033 682.977C601.576 671.596 602.398 601.706 594.697 574.088C594.305 572.69 593.434 571.468 592.226 570.625L577.281 560.209L576.138 543.374L616.957 548.507Z" fill="url(#paint36_linear_516_27222)"/>
<path d="M564.54 457.425C592.523 454.462 613.695 461.964 613.695 461.964C620.541 504.277 617.137 550.06 617.137 550.06C599.357 555.001 575.637 550.06 575.637 550.06C572.684 532.377 560.309 482.605 560.309 482.605C549.087 481.129 557.487 458.173 564.54 457.425Z" fill="url(#paint37_linear_516_27222)"/>
<path d="M604.882 485.519L613.691 461.964C613.691 461.964 635.141 477.402 638.67 496.978C634.616 497.293 627.241 498.411 620.022 502.272C618.437 493.032 604.882 485.519 604.882 485.519Z" fill="url(#paint38_linear_516_27222)"/>
<path d="M586.311 507.587C586.311 507.587 610.305 522.154 618.403 509.715C620.082 507.133 620.485 504.566 620.072 502.118C627.264 498.217 634.612 497.088 638.65 496.769C639.711 502.734 639.148 509.072 635.889 515.486C621.707 543.357 583.138 513.946 583.138 513.946L586.311 507.587Z" fill="url(#paint39_linear_516_27222)"/>
<path d="M587.167 525.928L574.021 477.306C573.87 476.755 573.425 476.348 572.89 476.284C570.507 475.99 563.606 475.161 555.64 474.45C546.043 473.589 534.897 472.894 528.238 473.488C527.289 473.573 526.718 474.632 527.142 475.536C530.929 483.653 546.508 516.667 554.312 527.484C554.57 527.842 554.969 528.051 555.398 528.045L585.895 527.746C586.773 527.73 587.409 526.832 587.167 525.928Z" fill="url(#paint40_linear_516_27222)"/>
<path d="M554.272 470.231L544.741 468.547C544.231 468.456 543.817 468.969 543.979 469.488L544.923 472.515C545.004 472.777 545.221 472.969 545.483 473.007L554.656 474.306C555.131 474.375 555.519 473.916 555.413 473.424L554.828 470.782C554.762 470.493 554.545 470.279 554.272 470.231Z" fill="url(#paint41_linear_516_27222)"/>
<path d="M561.411 478.776L560.623 474.445C560.543 474.012 560.204 473.68 559.79 473.637L540.541 471.568C539.895 471.498 539.375 472.129 539.526 472.798L540.748 478.193C540.844 478.626 541.203 478.937 541.622 478.958L560.432 479.963C561.047 480.001 561.527 479.412 561.411 478.776Z" fill="url(#paint42_linear_516_27222)"/>
<path d="M583.987 514.18C583.987 514.18 585.819 506.207 585.077 503.373C584.335 500.539 582.907 496.909 578.136 497.716C573.365 498.523 567.736 500.652 567.736 500.652C567.736 500.652 568.019 504.336 571.644 503.149L569.397 504.994C569.397 504.994 569.72 507.945 572.78 506.368L570.69 508.812C570.69 508.812 572.007 511.234 574.259 509.683C576.52 508.122 577.601 515.137 583.987 514.18Z" fill="url(#paint43_linear_516_27222)"/>
<path d="M535.114 502.309C535.114 502.309 529.561 496.582 528.768 493.77C527.976 490.957 527.365 487.07 531.812 485.07C536.26 483.07 542.096 481.707 542.096 481.707C542.096 481.707 543.701 484.99 540.036 486.022L542.863 486.316C542.863 486.316 544.07 488.995 540.687 489.385L543.686 490.278C543.686 490.278 543.787 493.069 541.101 493.021C538.405 492.978 541.01 499.529 535.114 502.309Z" fill="url(#paint44_linear_516_27222)"/>
<path d="M570.138 444.979L576.342 461.335C576.733 462.368 577.581 463.105 578.585 463.295C582.162 463.969 590.812 465.019 596.492 460.92C597.169 460.431 597.341 459.422 596.878 458.691L585.417 440.631L570.138 444.979Z" fill="url(#paint45_linear_516_27222)"/>
<path d="M576.998 421.333C576.741 421.584 566.138 443.107 566.138 443.107L578.156 449.105L591.138 430.247C591.138 430.247 581.306 417.142 576.998 421.333Z" fill="url(#paint46_linear_516_27222)"/>
<path d="M585.806 432.514L579.867 443.155C579.778 443.316 579.67 443.463 579.542 443.592C578.836 444.298 576.416 446.356 574.546 443.556C572.952 441.168 571.456 438.997 569.853 438.102C568.918 437.579 567.765 437.996 567.291 439.009C566.312 441.094 564.417 445.343 563.226 449.373C562.927 450.383 563.412 451.468 564.326 451.864C566.737 452.915 571.503 454.813 575.732 455.44C576.426 455.544 577.115 455.229 577.528 454.621C579.347 451.942 584.475 444.455 586.226 442.581C587.851 440.839 590.853 441.497 592.205 441.914C592.718 442.073 593.264 441.997 593.721 441.701C595.094 440.813 597.487 438.601 595.298 434.856C594.753 433.925 595.031 432.686 595.886 432.081C597.419 430.999 599.08 428.966 597.496 425.673C595.893 422.341 593.031 422.041 591.082 422.298C590.219 422.411 589.343 421.925 589.011 421.06C588.864 420.677 588.574 420.348 588.031 420.231C587.009 420.008 586.338 419.003 586.538 417.903C586.883 416.018 586.623 413.568 583.821 411.911C578.684 408.875 574.184 413.823 573.039 418C571.895 422.177 577.64 425.127 581.254 425.621C583.908 425.983 585.363 429.097 585.95 430.723C586.162 431.312 586.11 431.972 585.806 432.514Z" fill="url(#paint47_linear_516_27222)"/>
<path d="M584.138 446.19C584.138 446.19 586.246 439.326 588.945 439.579C591.644 439.831 593.768 442.821 590.422 446.185C586.262 450.368 584.138 446.19 584.138 446.19Z" fill="url(#paint48_linear_516_27222)"/>
<path d="M322.092 598.712C318.055 582.656 309.446 569.576 298.918 561.597C289.507 554.468 282.971 543.791 280.911 531.743C280.694 530.476 280.428 529.204 280.104 527.928C275.248 508.615 260.143 496.112 246.363 499.998C232.583 503.884 225.347 522.69 230.203 542.003C231.196 545.95 232.618 549.615 234.369 552.91C239.96 563.432 241.781 575.795 239.034 587.514C236.58 597.989 236.593 609.929 239.619 621.967C244.134 639.923 254.361 654.153 266.599 661.691C271.229 664.54 275.35 668.266 278.709 672.678C284.283 680.013 292.436 683.749 300.172 681.567C308.52 679.211 314.05 670.627 314.874 660.32C315.344 654.487 316.89 648.827 319.234 643.518C324.773 631.001 326.173 614.946 322.092 598.712Z" fill="#91B3FA"/>
<path d="M256.355 519.184C261.362 531.438 265.996 543.857 270.507 556.322C271.637 559.438 272.718 562.574 273.808 565.704L275.443 570.402L277.043 575.114C278.097 578.258 279.192 581.389 280.215 584.547L283.277 594.023C285.244 600.369 287.26 606.695 289.113 613.078C290.043 616.269 291.036 619.437 291.904 622.647L294.558 632.264C297.97 645.119 301.08 658.077 303.566 671.171L303.034 671.289L300.823 661.564L300.274 659.133L299.667 656.716L298.448 651.887L297.239 647.052C296.84 645.443 296.379 643.847 295.954 642.242C295.081 639.041 294.235 635.831 293.34 632.635C289.693 619.874 285.887 607.164 281.837 594.539C279.763 588.241 277.743 581.929 275.629 575.649L274.056 570.932L272.448 566.23C271.376 563.095 270.303 559.959 269.204 556.834C267.051 550.568 264.858 544.317 262.616 538.084C260.405 531.842 258.136 525.614 255.85 519.405L256.355 519.184Z" fill="#7D97F4"/>
<path d="M275.301 618.424C267.467 609.661 257.702 604.471 248.383 603.236C240.053 602.133 232.392 597.717 227.133 590.79C226.579 590.062 225.994 589.349 225.369 588.654C215.949 578.113 202.226 575.673 194.725 583.196C187.223 590.719 188.779 605.362 198.199 615.903C200.126 618.058 202.231 619.874 204.429 621.334C211.438 625.999 216.649 633.212 218.74 641.693C220.61 649.273 224.532 656.88 230.403 663.451C239.163 673.25 250.342 678.582 260.604 678.906C264.485 679.028 268.331 679.891 271.916 681.478C277.871 684.115 284.287 683.515 288.496 679.291C293.038 674.734 293.747 667.234 290.894 660.358C289.281 656.467 288.408 652.29 288.164 648.048C287.593 638.032 283.224 627.28 275.301 618.424Z" fill="#BDD0FB"/>
<path d="M207.375 591.771C214.58 597.754 221.603 603.973 228.559 610.276C230.301 611.848 232.015 613.453 233.739 615.049L236.322 617.447L238.883 619.869C240.585 621.488 242.308 623.084 243.997 624.727L249.052 629.65C252.384 632.977 255.743 636.272 259.013 639.665C260.652 641.36 262.323 643.016 263.927 644.748L268.765 649.911C275.155 656.862 281.38 663.981 287.256 671.425L286.954 671.697L282.359 666.304L281.212 664.953L280.033 663.634L277.676 661.001L275.323 658.363C274.539 657.481 273.728 656.632 272.93 655.763C271.326 654.041 269.731 652.304 268.118 650.591C261.614 643.786 255.025 637.075 248.308 630.509C244.927 627.252 241.568 623.966 238.165 620.733L235.618 618.302L233.052 615.894C231.342 614.289 229.632 612.679 227.908 611.093C224.483 607.883 221.036 604.701 217.566 601.547C214.11 598.374 210.627 595.234 207.136 592.108L207.375 591.771Z" fill="#7D97F4"/>
<defs>
<linearGradient id="paint0_linear_516_27222" x1="0.84099" y1="322.571" x2="952.703" y2="345.741" gradientUnits="userSpaceOnUse">
<stop stop-color="#E2E1FF"/>
<stop offset="1" stop-color="#F6F5FF"/>
</linearGradient>
<linearGradient id="paint1_linear_516_27222" x1="719.524" y1="-23.0984" x2="680.138" y2="103.331" gradientUnits="userSpaceOnUse">
<stop stop-color="#23209F"/>
<stop offset="1" stop-color="#1A0F91"/>
</linearGradient>
<linearGradient id="paint2_linear_516_27222" x1="616.827" y1="672.033" x2="724.04" y2="672.033" gradientUnits="userSpaceOnUse">
<stop stop-color="#09005D"/>
<stop offset="1" stop-color="#1A0F91"/>
</linearGradient>
<linearGradient id="paint3_linear_516_27222" x1="610.086" y1="-57.1913" x2="570.699" y2="69.2384" gradientUnits="userSpaceOnUse">
<stop stop-color="#09005D"/>
<stop offset="1" stop-color="#1A0F91"/>
</linearGradient>
<linearGradient id="paint4_linear_516_27222" x1="497.922" y1="672.033" x2="605.136" y2="672.033" gradientUnits="userSpaceOnUse">
<stop stop-color="#2B3582"/>
<stop offset="1" stop-color="#150E42"/>
</linearGradient>
<linearGradient id="paint5_linear_516_27222" x1="280.341" y1="537.144" x2="667.453" y2="537.144" gradientUnits="userSpaceOnUse">
<stop stop-color="#4042E2"/>
<stop offset="1" stop-color="#605DEC"/>
</linearGradient>
<linearGradient id="paint6_linear_516_27222" x1="433.837" y1="291.304" x2="316.055" y2="20.53" gradientUnits="userSpaceOnUse">
<stop stop-color="#3CB333"/>
<stop offset="1" stop-color="#B0FE94"/>
</linearGradient>
<linearGradient id="paint7_linear_516_27222" x1="224.379" y1="441.166" x2="424.154" y2="442.77" gradientUnits="userSpaceOnUse">
<stop stop-color="#3CB333"/>
<stop offset="1" stop-color="#80E95A"/>
</linearGradient>
<linearGradient id="paint8_linear_516_27222" x1="226.03" y1="200.609" x2="41.5901" y2="426.1" gradientUnits="userSpaceOnUse">
<stop stop-color="#3CB333"/>
<stop offset="1" stop-color="#8AFF60"/>
</linearGradient>
<linearGradient id="paint9_linear_516_27222" x1="179.818" y1="544.518" x2="108.835" y2="793.034" gradientUnits="userSpaceOnUse">
<stop stop-color="#3CB333"/>
<stop offset="1" stop-color="#80E95A"/>
</linearGradient>
<linearGradient id="paint10_linear_516_27222" x1="11.0278" y1="535.589" x2="159.875" y2="341.013" gradientUnits="userSpaceOnUse">
<stop stop-color="#3CB333"/>
<stop offset="1" stop-color="#80E95A"/>
</linearGradient>
<linearGradient id="paint11_linear_516_27222" x1="453.466" y1="335.106" x2="346.234" y2="156.243" gradientUnits="userSpaceOnUse">
<stop stop-color="#3CB333"/>
<stop offset="1" stop-color="#80E95A"/>
</linearGradient>
<linearGradient id="paint12_linear_516_27222" x1="194.237" y1="252.154" x2="173.487" y2="337.048" gradientUnits="userSpaceOnUse">
<stop stop-color="#09005D"/>
<stop offset="1" stop-color="#1A0F91"/>
</linearGradient>
<linearGradient id="paint13_linear_516_27222" x1="241.222" y1="279.011" x2="183.228" y2="448.835" gradientUnits="userSpaceOnUse">
<stop stop-color="#09005D"/>
<stop offset="1" stop-color="#1A0F91"/>
</linearGradient>
<linearGradient id="paint14_linear_516_27222" x1="201.533" y1="253.937" x2="180.782" y2="338.831" gradientUnits="userSpaceOnUse">
<stop stop-color="#09005D"/>
<stop offset="1" stop-color="#1A0F91"/>
</linearGradient>
<linearGradient id="paint15_linear_516_27222" x1="170.336" y1="442.911" x2="157.414" y2="700.031" gradientUnits="userSpaceOnUse">
<stop stop-color="#09005D"/>
<stop offset="1" stop-color="#1A0F91"/>
</linearGradient>
<linearGradient id="paint16_linear_516_27222" x1="193.514" y1="358.723" x2="141.576" y2="491.952" gradientUnits="userSpaceOnUse">
<stop stop-color="#09005D"/>
<stop offset="1" stop-color="#1A0F91"/>
</linearGradient>
<linearGradient id="paint17_linear_516_27222" x1="107.788" y1="569.167" x2="-99.7688" y2="704.427" gradientUnits="userSpaceOnUse">
<stop stop-color="#09005D"/>
<stop offset="1" stop-color="#1A0F91"/>
</linearGradient>
<linearGradient id="paint18_linear_516_27222" x1="97.466" y1="590.913" x2="-111.805" y2="723.161" gradientUnits="userSpaceOnUse">
<stop stop-color="#09005D"/>
<stop offset="1" stop-color="#1A0F91"/>
</linearGradient>
<linearGradient id="paint19_linear_516_27222" x1="1621.09" y1="1598.41" x2="1828.64" y2="1733.67" gradientUnits="userSpaceOnUse">
<stop stop-color="#09005D"/>
<stop offset="1" stop-color="#1A0F91"/>
</linearGradient>
<linearGradient id="paint20_linear_516_27222" x1="1659.05" y1="1608.58" x2="1868.32" y2="1740.82" gradientUnits="userSpaceOnUse">
<stop stop-color="#09005D"/>
<stop offset="1" stop-color="#1A0F91"/>
</linearGradient>
<linearGradient id="paint21_linear_516_27222" x1="123.715" y1="593.606" x2="-83.8422" y2="728.867" gradientUnits="userSpaceOnUse">
<stop stop-color="#09005D"/>
<stop offset="1" stop-color="#1A0F91"/>
</linearGradient>
<linearGradient id="paint22_linear_516_27222" x1="796.142" y1="633.424" x2="852.966" y2="604.923" gradientUnits="userSpaceOnUse">
<stop stop-color="#09005D"/>
<stop offset="1" stop-color="#1A0F91"/>
</linearGradient>
<linearGradient id="paint23_linear_516_27222" x1="828.289" y1="488.011" x2="943.409" y2="488.011" gradientUnits="userSpaceOnUse">
<stop stop-color="#4042E2"/>
<stop offset="1" stop-color="#4F52FF"/>
</linearGradient>
<linearGradient id="paint24_linear_516_27222" x1="840.704" y1="671.942" x2="943.409" y2="671.942" gradientUnits="userSpaceOnUse">
<stop stop-color="#4042E2"/>
<stop offset="1" stop-color="#4F52FF"/>
</linearGradient>
<linearGradient id="paint25_linear_516_27222" x1="738.407" y1="436.885" x2="929.07" y2="716.123" gradientUnits="userSpaceOnUse">
<stop stop-color="#80E95A"/>
<stop offset="1" stop-color="#C9FFB6"/>
</linearGradient>
<linearGradient id="paint26_linear_516_27222" x1="798.447" y1="154.147" x2="794.47" y2="401.945" gradientUnits="userSpaceOnUse">
<stop stop-color="#3CB333"/>
<stop offset="1" stop-color="#80E95A"/>
</linearGradient>
<linearGradient id="paint27_linear_516_27222" x1="735.706" y1="668.637" x2="869.326" y2="668.637" gradientUnits="userSpaceOnUse">
<stop stop-color="#3CB333"/>
<stop offset="1" stop-color="#80E95A"/>
</linearGradient>
<linearGradient id="paint28_linear_516_27222" x1="835.145" y1="425.137" x2="717.438" y2="718.233" gradientUnits="userSpaceOnUse">
<stop stop-color="#3CB333"/>
<stop offset="1" stop-color="#80E95A"/>
</linearGradient>
<linearGradient id="paint29_linear_516_27222" x1="736.454" y1="530.916" x2="859.048" y2="530.916" gradientUnits="userSpaceOnUse">
<stop stop-color="#80E95A"/>
<stop offset="1" stop-color="#BBFFA3"/>
</linearGradient>
<linearGradient id="paint30_linear_516_27222" x1="567.338" y1="508.971" x2="534.69" y2="508.971" gradientUnits="userSpaceOnUse">
<stop stop-color="#FF928E"/>
<stop offset="1" stop-color="#FEB3B1"/>
</linearGradient>
<linearGradient id="paint31_linear_516_27222" x1="561.749" y1="632.956" x2="560.966" y2="714.282" gradientUnits="userSpaceOnUse">
<stop stop-color="#09005D"/>
<stop offset="1" stop-color="#1A0F91"/>
</linearGradient>
<linearGradient id="paint32_linear_516_27222" x1="577.742" y1="685.798" x2="569.047" y2="685.798" gradientUnits="userSpaceOnUse">
<stop stop-color="#FF928E"/>
<stop offset="1" stop-color="#FEB3B1"/>
</linearGradient>
<linearGradient id="paint33_linear_516_27222" x1="588.559" y1="484.885" x2="584.107" y2="663.165" gradientUnits="userSpaceOnUse">
<stop stop-color="#09005D"/>
<stop offset="1" stop-color="#1A0F91"/>
</linearGradient>
<linearGradient id="paint34_linear_516_27222" x1="604.492" y1="633.368" x2="603.708" y2="714.694" gradientUnits="userSpaceOnUse">
<stop stop-color="#09005D"/>
<stop offset="1" stop-color="#1A0F91"/>
</linearGradient>
<linearGradient id="paint35_linear_516_27222" x1="609.077" y1="685.326" x2="601.57" y2="685.326" gradientUnits="userSpaceOnUse">
<stop stop-color="#FF928E"/>
<stop offset="1" stop-color="#FEB3B1"/>
</linearGradient>
<linearGradient id="paint36_linear_516_27222" x1="600.492" y1="485.576" x2="595.784" y2="663.265" gradientUnits="userSpaceOnUse">
<stop stop-color="#09005D"/>
<stop offset="1" stop-color="#1A0F91"/>
</linearGradient>
<linearGradient id="paint37_linear_516_27222" x1="599.25" y1="493.783" x2="456.917" y2="633.716" gradientUnits="userSpaceOnUse">
<stop stop-color="#41CB37"/>
<stop offset="1" stop-color="#CFFFBD"/>
</linearGradient>
<linearGradient id="paint38_linear_516_27222" x1="606.512" y1="501.169" x2="464.18" y2="641.101" gradientUnits="userSpaceOnUse">
<stop stop-color="#47CA3D"/>
<stop offset="1" stop-color="#CBFFB8"/>
</linearGradient>
<linearGradient id="paint39_linear_516_27222" x1="639.138" y1="512.128" x2="583.137" y2="512.128" gradientUnits="userSpaceOnUse">
<stop stop-color="#FF928E"/>
<stop offset="1" stop-color="#FEB3B1"/>
</linearGradient>
<linearGradient id="paint40_linear_516_27222" x1="542.172" y1="531.885" x2="566.489" y2="486.492" gradientUnits="userSpaceOnUse">
<stop stop-color="#09005D"/>
<stop offset="1" stop-color="#1A0F91"/>
</linearGradient>
<linearGradient id="paint41_linear_516_27222" x1="544.724" y1="448.341" x2="552.066" y2="478.778" gradientUnits="userSpaceOnUse">
<stop stop-color="#6C7EF4"/>
<stop offset="1" stop-color="#99B9FA"/>
</linearGradient>
<linearGradient id="paint42_linear_516_27222" x1="548.17" y1="461.185" x2="551.69" y2="481.128" gradientUnits="userSpaceOnUse">
<stop stop-color="#BDD0FB"/>
<stop offset="1" stop-color="#5E83CF"/>
</linearGradient>
<linearGradient id="paint43_linear_516_27222" x1="585.257" y1="505.934" x2="567.744" y2="505.934" gradientUnits="userSpaceOnUse">
<stop stop-color="#FF928E"/>
<stop offset="1" stop-color="#FEB3B1"/>
</linearGradient>
<linearGradient id="paint44_linear_516_27222" x1="529.904" y1="496.041" x2="545.212" y2="486.98" gradientUnits="userSpaceOnUse">
<stop stop-color="#FF928E"/>
<stop offset="1" stop-color="#FEB3B1"/>
</linearGradient>
<linearGradient id="paint45_linear_516_27222" x1="586.031" y1="460.04" x2="577.117" y2="435.677" gradientUnits="userSpaceOnUse">
<stop stop-color="#FEBBBA"/>
<stop offset="1" stop-color="#FF928E"/>
</linearGradient>
<linearGradient id="paint46_linear_516_27222" x1="580.491" y1="425.403" x2="572.548" y2="470.618" gradientUnits="userSpaceOnUse">
<stop stop-color="#FEBBBA"/>
<stop offset="1" stop-color="#FF928E"/>
</linearGradient>
<linearGradient id="paint47_linear_516_27222" x1="588.429" y1="447.285" x2="565.012" y2="424.143" gradientUnits="userSpaceOnUse">
<stop stop-color="#090056"/>
<stop offset="1" stop-color="#020039"/>
</linearGradient>
<linearGradient id="paint48_linear_516_27222" x1="586.977" y1="474.515" x2="588.476" y2="443.218" gradientUnits="userSpaceOnUse">
<stop stop-color="#FEBBBA"/>
<stop offset="1" stop-color="#FF928E"/>
</linearGradient>
</defs>
</svg>
