<svg width="80" height="80" viewBox="0 0 80 80" fill="none" xmlns="http://www.w3.org/2000/svg">
<g clip-path="url(#clip0_693_29003)">
<path d="M76.5434 13.7661C76.4596 11.8559 76.4858 9.94244 76.6217 8.03525C75.1245 8.82257 73.6728 9.69358 72.2736 10.6441C69.6647 12.3834 66.0558 14.9922 64.3513 17.4272C61.6033 21.3144 62.7164 24.8886 65.4818 26.2104C66.5862 20.8187 69.4212 18.9751 73.1432 14.627C71.4996 18.8795 68.3255 22.4536 68.369 26.7409C72.1605 26.1582 75.9173 24.2451 76.7435 21.5231C77.1957 19.7665 76.6304 16.7315 76.5434 13.7661Z" fill="#605DEC"/>
<path d="M38.2978 6.53081C38.3816 4.62062 38.3555 2.70718 38.2195 0.799988C39.7174 1.58619 41.1691 2.45723 42.5677 3.40886C45.1765 5.14811 48.7942 7.75698 50.4899 10.1919C53.2379 14.0792 52.1335 17.6533 49.3594 18.9751C48.2637 13.5835 45.42 11.7399 41.7067 7.39174C43.3416 11.6442 46.5157 15.2184 46.4723 19.5056C42.6894 18.923 38.9326 17.0098 38.1065 14.2879C37.6369 12.5312 38.2108 9.49623 38.2978 6.53081Z" fill="#605DEC"/>
<path d="M57.8295 43.7855V35.4284L37.1933 43.7855V35.4284L17.8094 43.255L15.7745 13.6877H6.13905L1.59961 79.5357H78.457V35.4284L57.8295 43.7855ZM29.4276 72.9005H22.2358V65.7348H29.4276V72.9005ZM29.4276 59.8561H22.2358V52.7078H29.4276V59.8561ZM49.6203 72.9005H42.472V65.7348H49.6377L49.6203 72.9005ZM49.6203 59.8561H42.472V52.7078H49.6377L49.6203 59.8561ZM62.6646 52.6904H69.8304V59.8561H62.6212L62.6646 52.6904ZM70.1608 72.8831H62.9516V65.7348H70.1173L70.1608 72.8831Z" fill="#605DEC"/>
<path d="M51.8817 22.4449H41.481L40.4287 39.9853L52.6382 35.0371L51.8817 22.4449Z" fill="#605DEC"/>
<path d="M72.561 29.2802H62.1603L61.5342 39.7939L72.9176 35.1762L72.561 29.2802Z" fill="#605DEC"/>
</g>
<defs>
<clipPath id="clip0_693_29003">
<rect width="76.8574" height="78.7358" fill="white" transform="translate(1.59961 0.799988)"/>
</clipPath>
</defs>
</svg>
