<svg width="80" height="81" viewBox="0 0 80 81" fill="none" xmlns="http://www.w3.org/2000/svg">
<path d="M30.4817 73.7132H49.9659C50.315 73.4624 50.5994 73.132 50.7956 72.7495C50.9918 72.367 51.0941 71.9433 51.0941 71.5135C51.0941 71.0836 50.9918 70.6599 50.7956 70.2774C50.5994 69.8949 50.315 69.5646 49.9659 69.3138H30.513C30.1638 69.5646 29.8794 69.8949 29.6833 70.2774C29.4871 70.6599 29.3848 71.0836 29.3848 71.5135C29.3848 71.9433 29.4871 72.367 29.6833 72.7495C29.8794 73.132 30.1638 73.4624 30.513 73.7132H30.4817Z" fill="#605DEC"/>
<path d="M40.8228 45.1953L40.9558 49.0546C45.2691 48.5536 48.6665 43.6688 48.6665 37.7273C48.6665 32.4355 42.451 23.3392 40.22 20.247C37.9968 23.3392 31.7812 32.4433 31.7812 37.7038C31.7812 43.6454 35.1787 48.5301 39.492 49.0311L39.6329 45.0075L35.6092 40.4671L39.6955 43.5984L39.8521 39.1207L35.5309 34.3455L39.899 37.7586L40.1182 31.3004C40.1182 31.2843 40.1215 31.2683 40.1278 31.2536C40.1342 31.2388 40.1436 31.2255 40.1553 31.2144C40.1671 31.2034 40.181 31.195 40.1961 31.1895C40.2113 31.1841 40.2274 31.1819 40.2435 31.183C40.2746 31.183 40.3045 31.1953 40.3265 31.2173C40.3485 31.2394 40.3609 31.2692 40.3609 31.3004L40.5644 37.7038L44.776 34.3064L40.6114 39.0815L40.768 43.6454L44.8229 40.3967C44.8315 40.389 44.8427 40.3847 44.8542 40.3847C44.8658 40.3847 44.8769 40.389 44.8856 40.3967C44.8933 40.4053 44.8975 40.4164 44.8975 40.428C44.8975 40.4395 44.8933 40.4507 44.8856 40.4593L40.8228 45.1953Z" fill="#605DEC"/>
<path d="M29.3477 64.8126C29.3495 65.2393 29.451 65.6596 29.644 66.0402C29.8369 66.4207 30.1161 66.7509 30.4593 67.0045H49.967C50.3102 66.7509 50.5894 66.4207 50.7824 66.0402C50.9754 65.6596 51.0768 65.2393 51.0786 64.8126C51.0839 64.3403 50.9652 63.8749 50.7345 63.4629C50.5037 63.0508 50.1689 62.7064 49.7635 62.4641H40.5263H40.268C40.1535 62.4768 40.038 62.4768 39.9235 62.4641H30.6863C30.2765 62.7035 29.9371 63.0466 29.7021 63.4588C29.4671 63.8711 29.3448 64.338 29.3477 64.8126Z" fill="#605DEC"/>
<path d="M40.2201 5.60843C34.0185 5.90415 28.1661 8.5656 23.8671 13.0452C19.092 18.0865 17.3306 25.5702 19.0372 33.5158C20.0626 38.2831 22.5442 41.9467 25.1744 45.8294C26.1451 47.2698 27.1628 48.765 28.1021 50.3306C28.9782 52.0226 29.422 53.9051 29.3938 55.8103C29.3792 57.0922 29.6104 58.3651 30.0748 59.56C30.1859 59.7964 30.3309 60.0153 30.5054 60.2097H39.1163L39.4216 51.0117C34.0437 50.5106 29.8087 44.7491 29.8087 37.7038C29.8087 30.6585 39.0459 18.4701 39.4373 17.9612C39.5294 17.8411 39.6479 17.7438 39.7836 17.6768C39.9194 17.6098 40.0687 17.575 40.2201 17.575C40.3715 17.575 40.5208 17.6098 40.6566 17.6768C40.7923 17.7438 40.9108 17.8411 41.0029 17.9612C41.4022 18.4935 50.6394 30.6585 50.6394 37.7038C50.6394 44.7491 46.3965 50.5106 41.0264 51.0117L41.3395 60.1628H49.9505C50.1249 59.9683 50.27 59.7494 50.381 59.513C50.8422 58.3172 51.0732 57.045 51.0621 55.7633C51.0339 53.8582 51.4777 51.9757 52.3537 50.2836C53.2931 48.718 54.3108 47.2228 55.2815 45.7825C57.9117 41.8684 60.3932 38.2361 61.4187 33.4688C63.1253 25.4997 61.3639 18.0395 56.5888 12.9982C52.2783 8.5323 46.4206 5.88776 40.2201 5.60843V5.60843Z" fill="#605DEC"/>
<path d="M50.0206 76.0068H30.5912C30.2378 76.2563 29.9495 76.5871 29.7506 76.9713C29.5517 77.3554 29.448 77.7817 29.4482 78.2143C29.4501 78.641 29.5515 79.0614 29.7445 79.4419C29.9375 79.8224 30.2167 80.1527 30.5598 80.4062H50.0441C50.3947 80.1565 50.6805 79.8265 50.8778 79.4439C51.075 79.0612 51.1779 78.637 51.1779 78.2065C51.1779 77.776 51.075 77.3518 50.8778 76.9691C50.6805 76.5865 50.3947 76.2566 50.0441 76.0068H50.0206Z" fill="#605DEC"/>
</svg>
