<svg width="80" height="80" viewBox="0 0 80 80" fill="none" xmlns="http://www.w3.org/2000/svg">
<path fill-rule="evenodd" clip-rule="evenodd" d="M64.0367 20.1992C65.321 20.1968 66.5519 19.6848 67.4591 18.7758C68.3664 17.8668 68.8759 16.635 68.8759 15.3507V5.06044C68.9045 4.40651 68.8005 3.75356 68.5699 3.14094C68.3394 2.52832 67.9872 1.96871 67.5346 1.49586C67.082 1.02301 66.5383 0.646705 65.9364 0.389621C65.3344 0.132537 64.6866 0 64.0321 0C63.3775 0 62.7297 0.132537 62.1278 0.389621C61.5258 0.646705 60.9822 1.02301 60.5295 1.49586C60.0769 1.96871 59.7248 2.52832 59.4942 3.14094C59.2637 3.75356 59.1596 4.40651 59.1882 5.06044V15.3507C59.1882 15.9874 59.3136 16.6179 59.5573 17.2062C59.801 17.7944 60.1581 18.3289 60.6083 18.7791C61.0585 19.2293 61.593 19.5865 62.1813 19.8301C62.7695 20.0738 63.4 20.1992 64.0367 20.1992ZM17.8985 19.8302C17.3102 20.0739 16.6797 20.1993 16.043 20.1993C14.7571 20.1993 13.5239 19.6885 12.6146 18.7792C11.7054 17.8699 11.1945 16.6367 11.1945 15.3508V5.06052C11.1945 3.77462 11.7054 2.54139 12.6146 1.63212C13.5239 0.722857 14.7571 0.212036 16.043 0.212036C17.3289 0.212036 18.5621 0.722857 19.4714 1.63212C20.3807 2.54139 20.8915 3.77462 20.8915 5.06052V15.3508C20.8915 15.9875 20.7661 16.618 20.5224 17.2062C20.2788 17.7945 19.9216 18.329 19.4714 18.7792C19.0212 19.2294 18.4867 19.5866 17.8985 19.8302ZM72.0556 11.0213V15.3506C72.0922 16.4285 71.9115 17.5027 71.5243 18.5093C71.1371 19.5158 70.5513 20.4342 69.8018 21.2096C69.0522 21.9851 68.1543 22.6017 67.1615 23.0229C66.1686 23.4441 65.1012 23.6611 64.0227 23.6611C62.9442 23.6611 61.8768 23.4441 60.8839 23.0229C59.8911 22.6017 58.9931 21.9851 58.2436 21.2096C57.4941 20.4342 56.9082 19.5158 56.521 18.5093C56.1338 17.5027 55.9532 16.4285 55.9898 15.3506V11.0213H24.0806V15.3506C24.1173 16.4285 23.9366 17.5027 23.5494 18.5093C23.1622 19.5158 22.5764 20.4342 21.8268 21.2096C21.0773 21.9851 20.1793 22.6017 19.1865 23.0229C18.1937 23.4441 17.1262 23.6611 16.0477 23.6611C14.9692 23.6611 13.9018 23.4441 12.9089 23.0229C11.9161 22.6017 11.0182 21.9851 10.2686 21.2096C9.51909 20.4342 8.93327 19.5158 8.54607 18.5093C8.15886 17.5027 7.97819 16.4285 8.01481 15.3506V11.0213H1.59961V79.549H78.4801V11.0213H72.0556ZM39.5624 22.4612C39.5624 22.4612 39.1285 23.0891 38.405 24.176C34.7742 29.6302 23.8488 46.6437 23.8488 53.879C23.8605 57.5338 25.142 61.0709 27.4741 63.885C29.3887 66.1952 31.9135 67.9002 34.7421 68.8185C35.359 69.0188 35.9903 69.1816 36.6329 69.3052L36.7786 67.3742L37.1057 63.0383L34.3533 60.1949L27.5756 53.193L35.5444 58.6815L35.6011 58.7205L37.3745 59.942L37.5461 57.7264L37.8102 54.3148L36.2809 52.9192L30.3938 47.5473L36.184 50.6813L37.4026 51.3409L38.0327 51.6819L38.1989 49.5864L38.4533 46.3786L38.4592 46.305L37.948 45.9252L32.2201 41.6698L36.7393 43.5719L38.536 44.3281L38.6075 44.3582L38.6316 44.0387L38.7597 42.337L39.5346 32.047L40.3064 42.2507L40.4335 43.9309L40.4616 44.3026L40.542 44.2647L42.3227 43.4248L46.5153 41.4473L41.1721 45.809L40.6099 46.2679L40.6168 46.3545L40.8707 49.5558L41.0364 51.6448L41.7083 51.2873L42.8863 50.6603L48.2303 47.8161L42.8358 52.8644L41.296 54.3055L41.5667 57.7462L41.7409 59.9605L43.4322 58.7945L43.5697 58.6998L51.5306 53.2116L44.6793 60.2693L41.9912 63.0383L42.3313 67.3754L42.4826 69.3052C43.1248 69.1817 43.7558 69.019 44.3724 68.8188C47.2014 67.9006 49.7266 66.1955 51.6414 63.885C53.9734 61.0709 55.255 57.5338 55.2666 53.879C55.2666 46.6438 44.3481 29.6309 40.7193 24.1763C39.9961 23.0892 39.5624 22.4612 39.5624 22.4612ZM38.7189 27.1971C39.0225 26.7298 39.3049 26.2989 39.5619 25.9095C39.8186 26.2988 40.1008 26.7296 40.4041 27.1967C41.8649 29.4465 43.8098 32.5316 45.7519 35.8804C47.6976 39.2355 49.6214 42.8225 51.0531 46.0822C52.5185 49.4189 53.3437 52.143 53.3446 53.876C53.3337 57.084 52.2085 60.1885 50.1615 62.6586C48.5798 64.5672 46.5236 66.0054 44.2172 66.8403L43.9753 63.7539L52.9097 54.5503L50.4397 51.6292L43.3954 56.4854L43.2846 55.0768L49.5436 49.2195L47.3273 46.1194L42.7207 48.5712L42.6056 47.12L47.7307 42.9362L45.6953 39.7089L42.1675 41.3729L41.4511 31.902L37.618 31.9026L36.8915 41.5506L32.9657 39.8983L31.0739 43.2126L36.4591 47.2135L36.3502 48.5858L31.3087 45.857L29.0983 48.967L35.8215 55.102L35.7159 56.4658L28.6658 51.6101L26.1946 54.5298L35.1242 63.7547L34.8916 66.8379C32.5879 66.0026 30.5342 64.5654 28.954 62.6586C26.907 60.1885 25.7818 57.084 25.7708 53.8761C25.7718 52.1433 26.5973 49.4193 28.0637 46.0826C29.4962 42.8229 31.4211 39.2359 33.368 35.8808C35.3112 32.5321 37.2572 29.447 38.7189 27.1971Z" fill="#605DEC"/>
</svg>
