<svg width="77" height="78" viewBox="0 0 77 78" fill="none" xmlns="http://www.w3.org/2000/svg">
<path d="M38.4038 0C38.4038 0 25.8008 18.239 25.8008 25.1986C25.8101 28.1299 26.838 30.9668 28.7084 33.2238C30.5789 35.4808 33.1756 37.0176 36.0542 37.5711L36.4334 32.5447L28.7898 24.6483L36.649 30.0613L36.9985 25.548L31.0502 20.1202L37.1769 23.4364L37.519 19.1238L32.5149 15.4061L37.6379 17.5624L38.3815 7.6882L39.125 17.5178L43.9803 15.2277L39.244 19.0941L39.586 23.4066L45.3559 20.3358L39.7942 25.5406L40.1511 30.0762L48.0029 24.6632L40.3519 32.5447L40.7459 37.5711C43.6245 37.0176 46.2213 35.4808 48.0917 33.2238C49.9621 30.9668 50.99 28.1299 50.9993 25.1986C50.9993 18.239 38.4038 0 38.4038 0Z" fill="#605DEC"/>
<path d="M35.742 77.0083V46.605L24.1873 38.9242C24.1873 38.9242 19.0644 42.865 21.295 47.8467L25.5629 51.0514L25.2283 57.0517L14.0752 49.0735L8.67711 19.7483C6.14382 17.9637 3.09701 17.0551 0 17.1608L6.19369 57.6242L17.0345 67.8554V77.0083H35.742Z" fill="#605DEC"/>
<path d="M41.0586 77.0084V46.6051L52.6132 38.9243C52.6132 38.9243 57.7362 42.8651 55.5056 47.8468L51.2377 51.0515L51.5797 57.0518L62.7253 49.0737L68.1234 19.7856C70.6567 18.0009 73.7035 17.0924 76.8006 17.1981L70.6366 57.6244L59.7735 67.8555V77.0084H41.0586Z" fill="#605DEC"/>
</svg>
