<svg width="146" height="77" viewBox="0 0 146 77" fill="none" xmlns="http://www.w3.org/2000/svg">
<path fill-rule="evenodd" clip-rule="evenodd" d="M106.864 14.4452C104.422 16.3057 102.686 18.7477 100.909 21.2479L100.909 21.2483C100.281 22.1323 99.6472 23.0237 98.9754 23.8991C98.1827 19.7146 98.1826 15.6851 100.716 12.0817C102.33 9.66916 104.417 7.61092 106.85 6.03227C109.283 4.45361 112.012 3.38757 114.87 2.89903C118.698 2.41089 122.467 1.54127 126.123 0.303079C128.25 -0.549325 129.313 0.458068 128.521 2.55033C127.387 6.24098 126.737 10.0636 126.587 13.9222C126.139 17.3811 124.554 20.5921 122.082 23.0479C119.61 25.5036 116.392 27.0642 112.936 27.4831C108.779 28.1224 106.903 30.2341 105.202 33.8955C100.08 45.4591 97.4116 57.6946 94.7448 69.9237L94.7433 69.9304C94.511 70.9956 94.2787 72.0608 94.0448 73.1254L94.0212 73.2345C93.5506 75.4068 93.2055 77 90.4097 77C87.5673 77 87.1419 75.0627 86.7165 73.1254C84.2995 61.8117 81.5732 50.5562 78.1507 39.4943C74.48 26.6053 67.9119 14.7297 58.9502 4.77819C58.5745 4.23852 58.2447 3.66824 57.9641 3.07338C61.3062 3.81502 64.3343 5.58255 66.6265 8.12971C73.8353 14.9317 79.2836 23.3891 82.5013 32.7719C84.0791 36.9094 85.235 41.16 86.3941 45.4221L86.3941 45.4223L86.3942 45.4226L86.3943 45.4227L86.3943 45.4228L86.3943 45.4228L86.3943 45.4229C87.5362 49.622 88.6812 53.8322 90.2356 57.9566C95.0503 42.6714 99.9036 27.5412 109.746 14.6196C110.21 14.1933 110.616 13.6122 110.403 13.0891C110.19 12.5661 109.552 12.876 109.146 13.0891C108.338 13.4551 107.573 13.9099 106.864 14.4452ZM18.5781 52.9443V67.2666L18.5784 67.4583C18.5818 69.1542 18.5854 70.9616 16.2263 70.9994C13.7781 71.0387 13.5854 69.0348 13.5854 67.0701C13.5854 63.8408 13.5725 60.6115 13.5597 57.3829C13.534 50.928 13.5083 44.4759 13.5854 38.0326C13.5854 35.1838 12.7371 34.3783 10.0962 34.5748H2.52027C1.17087 34.5748 0.0142708 34.0443 0.0142708 32.6101C-0.0230787 32.2704 0.0130996 31.9266 0.120281 31.6027C0.227462 31.2788 0.403044 30.9828 0.634623 30.7355C0.866203 30.4883 1.14816 30.2958 1.46064 30.1716C1.77312 30.0474 2.10853 29.9946 2.44321 30.0168H29.4312C29.766 29.9757 30.1055 30.0102 30.4257 30.1181C30.7459 30.2259 31.0389 30.4043 31.2837 30.6407C31.5285 30.8771 31.7192 31.1656 31.8421 31.4856C31.965 31.8056 32.0173 32.1493 31.995 32.4923C31.995 34.2408 30.607 34.6337 29.1998 34.6534C28.274 34.6534 27.3504 34.6643 26.4275 34.6752L26.4267 34.6752H26.4265C24.5824 34.6971 22.7412 34.7189 20.8914 34.6534C18.9636 34.6534 18.3853 35.2624 18.4239 37.1681C18.609 41.3647 18.5966 45.5739 18.5843 49.7856C18.5812 50.8384 18.5781 51.8913 18.5781 52.9443ZM42.1222 41.823C40.4211 42.5804 38.965 43.8224 37.9249 45.4031C37.9132 45.3109 37.9017 45.2189 37.8903 45.1273C37.6397 43.1134 37.4112 41.2768 34.9862 41.523C32.8544 41.7394 32.9497 43.3694 33.034 44.8125L33.034 44.8126C33.05 45.0858 33.0655 45.3522 33.0655 45.6011V67.7336C33.0655 69.3173 33.2 71 35.3512 71C37.5023 71 37.7328 69.3965 37.7328 67.6742V56.212C37.8864 49.0852 40.441 46.2742 47.3362 45.9178C48.9304 45.8188 49.8331 45.3833 49.9868 43.6016C50.1405 41.8199 48.9304 41.3052 47.5283 41.127C45.6987 40.8241 43.8233 41.0656 42.1222 41.823ZM109.039 47.1007C109.039 45.5867 109.039 44.0367 111.353 44.0006C113.667 43.9646 114 45.5146 114 47.2088V68.0441C114 69.7023 113.451 71 111.392 71C109.333 71 109 69.504 109 67.936V57.5183L109.039 47.1007ZM108.464 33.7383C108.301 34.158 108.237 34.6095 108.276 35.058C108.196 35.5029 108.218 35.9601 108.34 36.3952C108.462 36.8302 108.682 37.2318 108.982 37.5695C109.281 37.9073 109.654 38.1723 110.071 38.3446C110.488 38.517 110.939 38.5922 111.389 38.5645C111.826 38.5848 112.262 38.5188 112.674 38.3702C113.085 38.2215 113.463 37.9932 113.786 37.6981C114.109 37.4031 114.371 37.0472 114.557 36.6507C114.743 36.2542 114.849 35.8249 114.869 35.3873C114.89 34.9497 114.824 34.5124 114.675 34.1004C114.527 33.6883 114.299 33.3096 114.005 32.9858C113.71 32.662 113.355 32.3994 112.959 32.2132C112.564 32.0269 112.135 31.9206 111.698 31.9002C111.255 31.8245 110.801 31.8515 110.37 31.9792C109.939 32.1069 109.543 32.3319 109.213 32.6368C108.882 32.9418 108.626 33.3186 108.464 33.7383ZM76.691 58.2178V58.2174V58.2172C76.6668 56.034 76.6427 53.8529 76.634 51.6756C76.634 46.0767 74.9108 42.9982 71.0727 41.786C65.1981 39.862 58.5403 41.5936 55.7597 45.6341L55.6714 45.7611C54.8103 46.9972 53.8666 48.352 55.7597 49.6169C57.7179 50.9252 58.6383 49.9824 59.6761 48.5202C60.6649 47.0807 62.1201 46.0122 63.8052 45.4882C65.4903 44.9642 67.3063 45.0156 68.9579 45.6341C71.6798 46.4422 72.0714 48.5779 71.9539 50.7328C71.8621 52.4174 70.6454 52.3383 69.4451 52.2602C69.11 52.2385 68.7761 52.2168 68.4683 52.2336C64.7949 52.2318 61.1678 53.0406 57.8549 54.6002C56.0631 55.5411 54.6395 57.0392 53.8068 58.8601C52.9741 60.6809 52.7795 62.7217 53.2532 64.6629C53.6049 66.3875 54.5386 67.945 55.9033 69.0834C57.2679 70.2217 58.9836 70.8742 60.7727 70.9353C62.7835 71.1228 64.812 70.9019 66.7322 70.2862C68.6524 69.6705 70.4231 68.6733 71.9343 67.3566C72.3651 69.4153 73.168 71.0699 75.4982 70.3965C77.2758 69.8828 77.0707 68.6638 76.8734 67.491V67.491C76.8121 67.1263 76.7515 66.7661 76.7515 66.433C76.7515 63.6935 76.7212 60.954 76.691 58.2178ZM72.1105 59.1217C71.9897 60.3342 71.6115 61.5084 71.0003 62.5685C70.3892 63.6285 69.5586 64.5509 68.5622 65.2761C67.5658 66.0013 66.4258 66.5132 65.2156 66.7787C64.0054 67.0443 62.7521 67.0576 61.5363 66.8178C60.5731 66.6862 59.6859 66.231 59.0256 65.5295C58.3652 64.828 57.9723 63.9236 57.9137 62.9698C57.7386 61.8932 57.9393 60.7901 58.4833 59.8399C59.0273 58.8897 59.8824 58.1483 60.9097 57.7364C63.556 56.6186 66.3922 55.9986 69.2712 55.9085C71.8169 55.7353 72.3651 56.6396 72.1105 59.1217ZM120.003 56.3831C119.87 46.9614 124.776 41.0969 132.821 41.0008C140.77 40.9238 146.019 46.7499 146 55.7486C145.981 64.7472 141.188 70.8232 133.315 70.9963C125.442 71.1693 120.155 65.324 120.003 56.3831ZM130.862 66.67C131.214 66.7351 131.57 66.78 131.927 66.8046C137.67 67.3237 141.093 63.1513 141.169 55.9024C141.245 48.6535 137.708 44.3656 132.003 45.0194C127.724 45.5193 124.966 49.1341 124.681 54.6333C124.358 61.017 126.773 65.7086 130.862 66.67Z" fill="#69BF45"/>
</svg>
