<svg width="180" height="180" viewBox="0 0 180 180" fill="none" xmlns="http://www.w3.org/2000/svg">
<path d="M156.274 97.3956C154.413 95.5527 151.968 94.5559 149.335 94.6319C148.264 94.6503 147.229 94.8575 146.27 95.2143C145.819 92.1306 143.881 89.3471 140.892 87.9556C136.473 85.9054 131.246 87.5227 128.763 91.7161L124.757 98.4671C124.042 97.4899 123.121 96.6426 122.03 96.0222C117.987 93.7097 112.854 94.9689 110.352 98.8987L105.444 106.589C104.654 107.811 105.031 109.447 106.252 110.218C107.474 111.008 109.11 110.651 109.882 109.41L114.79 101.72C115.787 100.159 117.817 99.6701 119.416 100.574C120.224 101.043 120.808 101.796 121.033 102.699C121.277 103.601 121.146 104.542 120.657 105.35L115.956 113.266C115.223 114.506 115.636 116.124 116.877 116.877C117.29 117.121 117.761 117.253 118.212 117.253C119.114 117.253 119.98 116.802 120.468 115.956L123.834 110.278L125.018 108.265L133.236 94.388C134.345 92.5267 136.658 91.8118 138.632 92.7143C140.644 93.6547 141.584 95.9856 140.775 98.054L139.685 100.856L119.056 123.684C118.079 124.756 118.172 126.429 119.244 127.408C120.315 128.385 121.989 128.292 122.948 127.22L146.397 101.27C147.168 100.406 148.24 99.9166 149.406 99.8786C150.572 99.8405 151.662 100.292 152.49 101.101C154.012 102.624 154.145 105.051 152.772 106.723L120.428 146.383C119.319 147.737 117.777 148.715 116.066 149.147L67.5509 161.087H53.8806V133.125L62.4549 123.046C64.4107 120.733 67.2873 119.416 70.3144 119.416H103.994C106.777 119.416 109.052 121.692 109.052 124.474C109.052 127.257 106.796 129.531 103.994 129.531H78.4583C77.0102 129.531 75.8258 130.716 75.8258 132.164C75.8258 133.612 77.0102 134.797 78.4583 134.797H103.994C109.672 134.797 114.299 130.17 114.299 124.492C114.299 118.813 109.673 114.187 103.994 114.187H70.3144C65.7447 114.187 61.42 116.181 58.449 119.659L53.8792 125.037V122.838C53.8792 121.39 52.6948 120.205 51.2467 120.205L22.6888 120.207C21.2407 120.207 20.0563 121.391 20.0563 122.839L20 162.253C20 162.253 21.3222 162.253 22.7703 162.253C24.2184 162.253 25.1954 162.253 25.3214 162.253V125.472H48.7138V167.556H25.3214V162.253C25.3214 162.253 24.2184 162.253 22.7703 162.253C21.3222 162.253 20 162.265 20 162.253L20.0563 170.189C20.0563 171.637 21.2407 172.821 22.6888 172.821H51.3464C52.7945 172.821 53.979 171.637 53.979 170.189V166.39H67.9508C68.1581 166.39 68.364 166.372 68.5713 166.316L117.405 154.299C120.207 153.604 122.765 152.005 124.588 149.767L156.931 110.107C160.015 106.327 159.733 100.875 156.292 97.434L156.274 97.3956Z" fill="#8A8894"/>
<path d="M75.0229 39.7407C91.5145 39.7407 104.921 53.1488 104.921 69.639C104.921 86.1307 91.5132 99.5374 75.0229 99.5374C58.5313 99.5374 45.1245 86.1293 45.1245 69.639C45.1245 53.1474 58.5326 39.7407 75.0229 39.7407ZM75.0229 104.783C84.4065 104.783 93.2448 101.135 99.8817 94.4784C106.52 87.8398 110.186 79.0019 110.186 69.6196C110.186 60.2359 106.519 51.3976 99.8817 44.7608C93.2431 38.1222 84.4052 34.4561 75.0229 34.4561C65.6393 34.4561 56.8009 38.1037 50.1641 44.7608C43.5255 51.3993 39.8594 60.2373 39.8594 69.6196C39.8594 79.0032 43.507 87.8415 50.1641 94.4784C56.8026 101.117 65.6406 104.783 75.0229 104.783Z" fill="#8A8894"/>
<path d="M85.5124 30.1908C86.9605 30.1908 88.1449 29.0064 88.1449 27.5583V9.9582C88.1449 8.51011 86.9605 7.32568 85.5124 7.32568C84.0643 7.32568 82.8799 8.51011 82.8799 9.9582V27.5583C82.8799 29.0064 84.0643 30.1908 85.5124 30.1908Z" fill="#8A8894"/>
<path d="M100.086 36.2081C101.534 36.2081 102.718 35.0237 102.718 33.5756V15.9742C102.718 14.5261 101.534 13.3417 100.086 13.3417C98.6376 13.3417 97.4531 14.5261 97.4531 15.9742V33.5743C97.4531 35.0223 98.6376 36.2068 100.086 36.2068V36.2081Z" fill="#8A8894"/>
<path d="M68.2866 60.4823C68.3049 60.3131 68.8322 57.1166 72.3855 56.0253V65.6151C68.2866 64.0923 68.2866 61.5528 68.2866 60.5011V60.4823ZM77.6323 72.3098C82.879 74.0582 82.879 77.218 82.879 78.3644C82.879 79.3796 81.9201 82.7454 77.6323 83.7424V72.3098ZM72.3671 89.064V91.4329C72.3671 92.8429 73.4571 94.0654 74.8685 94.1402C76.373 94.2149 77.6322 93.0121 77.6322 91.5076V89.0627C84.853 87.9727 88.144 82.406 88.144 78.3436C88.144 75.7294 87.3728 73.4354 85.8316 71.5362C84.0451 69.3365 81.2997 67.7559 77.6336 66.8167V56.0976C78.6672 56.5108 79.5709 57.2073 80.3409 58.1845C80.6413 58.5609 80.8866 58.9361 81.0741 59.2941C81.6565 60.3277 82.879 60.855 84.0267 60.5547C85.7188 60.1218 86.5281 58.1858 85.644 56.6615C84.1776 54.1418 81.6015 51.491 77.6338 50.6435V48.0857C77.6338 46.6757 76.5438 45.4532 75.1324 45.3784C73.6279 45.3037 72.3687 46.5065 72.3687 48.0109V50.6055C68.9084 51.2075 66.7469 52.9744 65.4864 54.4986C63.7746 56.5488 63.023 58.9555 63.023 60.4404C63.023 61.3612 63.023 63.7498 64.6403 66.1565C66.2012 68.4887 68.8155 70.1427 72.3689 71.0832V83.7002C68.2135 82.6666 67.1786 79.2063 67.1786 77.8527C67.1786 76.3863 65.9745 75.2019 64.508 75.2202C63.0415 75.2386 61.9135 76.4991 61.9319 77.9656C61.9699 80.4473 63.0599 83.1179 64.8648 85.1484C66.2565 86.691 68.6072 88.4762 72.3677 89.0597L72.3671 89.064Z" fill="#605DEC"/>
</svg>
