<svg width="180" height="180" viewBox="0 0 180 180" fill="none" xmlns="http://www.w3.org/2000/svg">
<path d="M143.648 28.1564H112.475V25.6424C112.475 20.3251 107.685 16.0894 102.356 16.0894H77.3408C72.0131 16.0894 67.2235 20.4149 67.2235 25.7334V28.1564H36.0503C30.7227 28.1564 27 33.0133 27 38.3317V45.8181C27 47.111 28.2185 48.2681 29.514 48.2681H34.0391L41.0782 156.871C41.3888 161.95 45.6744 165.922 50.7734 165.922H128.925C134.024 165.922 138.309 161.95 138.62 156.871L144.654 48.2681H150.306C151.602 48.2681 152.698 47.111 152.698 45.8181V38.3317C152.697 33.0133 148.977 28.1564 143.648 28.1564ZM72.3703 25.7334C72.3703 22.9974 74.5985 21.1173 77.3408 21.1173H102.419C105.16 21.1173 107.447 22.9055 107.447 25.6424V28.1564H72.3703V25.7334ZM133.592 156.871C133.432 159.484 131.548 160.894 128.925 160.894H50.7734C48.1505 160.894 46.264 159.486 46.1061 156.871L39.067 48.2681H139.626L133.592 156.871ZM147.67 43.2402H32.0279V38.2123C32.0279 35.4763 33.3081 33.1843 36.0503 33.1843H143.648C146.389 33.1843 147.67 35.5948 147.67 38.3317V43.2402Z" fill="#8A8894"/>
<path d="M72.5746 119.71H83.247C84.5407 119.71 85.5107 118.746 85.5107 117.461C85.5107 116.176 84.5407 115.213 83.247 115.213H72.2521C70.9584 115.213 69.8271 114.571 69.1795 113.446C68.5332 112.321 68.5332 111.037 69.1795 109.912L73.7071 102.203L75.8095 103.488C76.4558 103.809 77.2645 103.809 77.7495 103.327C78.3958 102.846 78.5583 102.203 78.3958 101.4L76.9408 95.1362C76.7795 94.6544 76.6171 94.3328 76.1321 94.0113C75.6471 93.6897 75.1621 93.6897 74.8384 93.8511L68.5321 95.135C67.8858 95.2953 67.2384 95.9384 67.2384 96.5804C67.0771 97.2224 67.3997 98.0257 68.0471 98.3472L69.8259 99.4721L65.2983 107.503C63.8433 110.073 63.8433 113.125 65.2983 115.694C66.7533 118.104 69.5022 119.71 72.5744 119.71L72.5746 119.71Z" fill="#605DEC"/>
<path d="M104.105 99.7929L109.926 109.751C110.572 110.876 110.572 112.16 109.926 113.285C109.279 114.41 107.986 115.052 106.692 115.052H98.6072V112.963C98.6072 112.16 98.1222 111.518 97.4748 111.357C96.8285 111.035 96.0197 111.196 95.5347 111.678L91.0072 116.175C90.3609 116.817 90.3609 117.942 91.0072 118.746L95.5347 123.243C95.8585 123.565 96.3435 123.725 96.8285 123.725C96.9898 123.725 97.3135 123.725 97.4748 123.565C98.1211 123.243 98.6072 122.601 98.6072 121.958V119.709H106.854C109.764 119.709 112.514 118.264 113.969 115.694C115.424 113.124 115.424 110.071 113.969 107.502L108.147 97.5442C107.824 96.9023 107.177 96.5807 106.53 96.4194C105.884 96.2591 105.075 96.5796 104.59 97.0614C103.62 97.7045 103.62 98.8282 104.105 99.7929L104.105 99.7929Z" fill="#605DEC"/>
<path d="M79.8504 89.8345C80.4967 89.6743 81.1441 89.3527 81.4678 88.7096L86.4802 80.1967C87.1265 79.0718 88.2589 78.4298 89.5528 78.4298C90.8466 78.4298 91.9778 79.0718 92.6253 80.1967L96.5064 86.7824L94.8889 87.5858C94.2426 87.9073 93.7565 88.5493 93.9189 89.3527C93.9189 90.156 94.4039 90.6378 95.0513 90.9593L101.034 93.2079C101.195 93.2079 101.519 93.3682 101.68 93.3682C102.004 93.3682 102.165 93.3682 102.489 93.2079C102.974 93.0477 103.298 92.7262 103.459 92.2444L105.723 86.3017C106.046 85.6597 105.723 84.8564 105.238 84.3746C104.753 83.8929 103.944 83.7326 103.298 84.0531L100.873 85.178L96.8301 78.2719C95.3751 75.7017 92.6263 74.2563 89.7151 74.2563C86.8051 74.2563 84.0551 75.7017 82.6001 78.2719L77.5878 86.7847C77.1027 87.7483 77.264 88.8731 77.9115 89.5151C78.3953 89.6742 79.0428 89.8345 79.8503 89.8345L79.8504 89.8345Z" fill="#605DEC"/>
</svg>
