<svg width="180" height="180" viewBox="0 0 180 180" fill="none" xmlns="http://www.w3.org/2000/svg">
<path d="M156.005 16.0894H23.9589C16.8196 16.0894 11 21.9248 11 29.1039V121.416C11 128.595 16.803 134.43 23.9589 134.43H72.6839V150.252H57.051C52.6182 150.252 49.0148 153.875 49.0148 158.35V163.964C49.0148 165.342 50.1146 166.448 51.4846 166.448H128.531C129.901 166.448 131.001 165.342 131.001 163.964V158.35C131.001 153.892 127.398 150.252 122.965 150.252H107.332V134.43H156.04C163.179 134.43 168.999 128.595 168.999 121.416L169 29.1039C168.966 21.9248 163.163 16.0894 156.006 16.0894H156.005ZM122.93 155.202C124.639 155.202 126.044 156.597 126.044 158.333V161.464H53.939V158.333C53.939 156.615 55.3258 155.202 57.0524 155.202H122.93ZM77.6233 150.235V134.413H102.374V150.235H77.6233ZM164.024 121.416C164.024 125.856 160.437 129.463 156.004 129.463L23.9586 129.462C19.5424 129.462 15.9394 125.855 15.9394 121.415V29.1028C15.9394 24.662 19.5258 21.0555 23.9586 21.0555H156.007C160.423 21.0555 164.026 24.662 164.026 29.1028L164.024 121.416ZM148.51 30.559H31.501C28.2363 30.559 25.53 33.3389 25.53 36.6231V113.861C25.53 117.144 28.1859 119.816 31.4684 119.816H148.527C151.791 119.816 154.465 117.145 154.465 113.861V36.6375C154.448 33.3375 151.792 30.559 148.51 30.559ZM149.507 113.86C149.507 114.404 149.068 114.863 148.509 114.863L31.4684 114.864C30.9101 114.864 30.4706 114.422 30.4706 113.861V36.6377C30.4706 36.0932 30.9101 35.6344 31.4684 35.6344H148.527C149.085 35.6344 149.525 36.0763 149.525 36.6377L149.526 113.858L149.507 113.86Z" fill="#8A8894"/>
<path fill-rule="evenodd" clip-rule="evenodd" d="M108.529 60.463C109.672 58.8453 110.789 57.2653 112.36 56.0615C112.816 55.7151 113.308 55.4208 113.829 55.184C114.09 55.0462 114.5 54.8456 114.637 55.184C114.774 55.5225 114.513 55.8985 114.214 56.1743C107.882 64.535 104.759 74.3247 101.661 84.2146C100.661 81.546 99.9239 78.8217 99.1891 76.1047L99.1891 76.1046L99.1891 76.1046C98.4433 73.3468 97.6995 70.5965 96.6843 67.9194C94.6139 61.8484 91.1082 56.3762 86.4699 51.9751C84.995 50.327 83.0466 49.1834 80.8962 48.7035C81.0767 49.0884 81.2889 49.4574 81.5307 49.8066C87.2969 56.2455 91.5231 63.9294 93.885 72.269C96.0871 79.4263 97.8413 86.709 99.3965 94.0294C99.6702 95.2828 99.9439 96.5363 101.773 96.5363C103.572 96.5363 103.794 95.5055 104.097 94.0999L104.112 94.0294C104.263 93.3391 104.412 92.6484 104.562 91.9578L104.562 91.9578C106.278 84.0451 107.995 76.1284 111.29 68.6464C112.385 66.2773 113.592 64.911 116.267 64.4974C118.491 64.2264 120.562 63.2166 122.152 61.6276C123.743 60.0387 124.763 57.9611 125.051 55.723C125.147 53.2264 125.565 50.7531 126.295 48.3651C126.805 47.0113 126.121 46.3595 124.752 46.9111C122.4 47.7122 119.974 48.2749 117.511 48.5907C115.673 48.9068 113.917 49.5966 112.351 50.618C110.786 51.6395 109.443 52.9712 108.404 54.5322C106.774 56.8637 106.774 59.4709 107.284 62.1784C107.717 61.612 108.124 61.0353 108.529 60.4632L108.529 60.4632L108.529 60.4631L108.529 60.463ZM55.5544 80.9715V90.2384L55.5546 90.3624C55.5568 91.4598 55.5591 92.6292 54.0412 92.6537C52.4659 92.6791 52.3419 91.3825 52.3419 90.1113C52.3419 88.0219 52.3336 85.9324 52.3254 83.8434V83.8433C52.3088 79.6668 52.2923 75.4921 52.3419 71.3231C52.3419 69.4799 51.7961 68.9587 50.0968 69.0858H45.2222C44.354 69.0858 43.6098 68.7426 43.6098 67.8146C43.5857 67.5949 43.609 67.3724 43.678 67.1628C43.7469 66.9532 43.8599 66.7617 44.0089 66.6017C44.1579 66.4417 44.3394 66.3172 44.5404 66.2368C44.7415 66.1565 44.9573 66.1223 45.1726 66.1367H62.5377C62.7531 66.1101 62.9716 66.1324 63.1776 66.2022C63.3836 66.272 63.5721 66.3874 63.7296 66.5404C63.8872 66.6933 64.0098 66.88 64.0889 67.087C64.168 67.2941 64.2016 67.5165 64.1873 67.7384C64.1873 68.8697 63.2942 69.124 62.3888 69.1367C61.7929 69.1367 61.1985 69.1438 60.6045 69.1508H60.6045H60.6044H60.6043H60.6043H60.6042C59.4177 69.165 58.233 69.1791 57.0428 69.1367C55.8025 69.1367 55.4304 69.5308 55.4552 70.7638C55.5743 73.4791 55.5663 76.2026 55.5584 78.9277V78.9277L55.5584 78.9284C55.5564 79.6094 55.5544 80.2904 55.5544 80.9715ZM68.0034 76.0922C68.6726 75.0695 69.6096 74.2659 70.7041 73.7758C71.7987 73.2857 73.0054 73.1295 74.1826 73.3255C75.0848 73.4408 75.8633 73.7738 75.7645 74.9266C75.6656 76.0794 75.0848 76.3612 74.059 76.4253C69.6223 76.6558 67.9787 78.4747 67.8798 83.0859V90.5023C67.8798 91.6167 67.7315 92.6542 66.3474 92.6542C64.9632 92.6542 64.8767 91.5654 64.8767 90.5407V76.2203C64.8767 76.0593 64.8667 75.8869 64.8564 75.7102L64.8564 75.7101C64.8022 74.7764 64.7409 73.7217 66.1126 73.5817C67.6729 73.4224 67.8199 74.6107 67.9812 75.9138L68.0034 76.0922ZM113.76 77.1906C113.76 76.211 113.76 75.2081 115.249 75.1848C116.738 75.1615 116.952 76.1644 116.952 77.2606V90.7417C116.952 91.8145 116.599 92.6542 115.274 92.6542C113.949 92.6542 113.735 91.6863 113.735 90.6717V83.9312L113.76 77.1906ZM120.815 83.1966C120.729 77.1005 123.886 73.306 129.063 73.2438C134.177 73.194 137.555 76.9637 137.543 82.7861C137.53 88.6085 134.447 92.5398 129.381 92.6518C124.315 92.7638 120.913 88.9817 120.815 83.1966ZM127.802 89.8526C128.029 89.8947 128.258 89.9238 128.487 89.9396C132.183 90.2756 134.385 87.5758 134.434 82.8856C134.483 78.1953 132.207 75.4209 128.536 75.8439C125.783 76.1674 124.009 78.5063 123.825 82.0645C123.617 86.1949 125.171 89.2305 127.802 89.8526ZM92.9467 84.3842L92.9467 84.3833C92.9312 82.9707 92.9157 81.5595 92.9101 80.1507C92.9101 76.528 91.8013 74.5362 89.3318 73.7519C85.5518 72.5069 81.268 73.6274 79.4788 76.2417L79.422 76.3239C78.8679 77.1236 78.2607 78.0003 79.4788 78.8187C80.7388 79.6652 81.331 79.0552 81.9988 78.1091C82.635 77.1777 83.5713 76.4863 84.6556 76.1473C85.7398 75.8083 86.9083 75.8415 87.971 76.2417C89.7224 76.7646 89.9743 78.1464 89.8988 79.5407C89.8397 80.6307 89.0568 80.5795 88.2845 80.529C88.0689 80.5149 87.854 80.5009 87.656 80.5117C85.2924 80.5106 82.9586 81.0339 80.827 82.043C79.674 82.6518 78.758 83.6212 78.2222 84.7993C77.6865 85.9775 77.5612 87.2979 77.8661 88.5539C78.0923 89.6698 78.6931 90.6776 79.5712 91.4141C80.4492 92.1506 81.5532 92.5728 82.7043 92.6123C83.9982 92.7337 85.3034 92.5907 86.5389 92.1924C87.7744 91.794 88.9138 91.1488 89.8861 90.2968C90.1633 91.6288 90.6799 92.6995 92.1793 92.2637C93.323 91.9314 93.1911 91.1426 93.0642 90.3838C93.0247 90.1478 92.9857 89.9148 92.9857 89.6992C92.9857 87.9268 92.9662 86.1544 92.9467 84.3842ZM89.9995 84.9686C89.9218 85.7531 89.6784 86.5129 89.2852 87.1987C88.8919 87.8846 88.3575 88.4814 87.7164 88.9507C87.0753 89.4199 86.3417 89.7511 85.5631 89.9229C84.7844 90.0947 83.9779 90.1034 83.1957 89.9482C82.5759 89.8631 82.0051 89.5685 81.5802 89.1146C81.1553 88.6608 80.9024 88.0755 80.8647 87.4584C80.7521 86.7618 80.8813 86.0481 81.2313 85.4333C81.5813 84.8185 82.1315 84.3388 82.7925 84.0722C84.4952 83.349 86.3202 82.9478 88.1726 82.8895C89.8106 82.7775 90.1633 83.3626 89.9995 84.9686ZM113.39 68.5447C113.286 68.8163 113.244 69.1084 113.269 69.3986C113.218 69.6864 113.232 69.9823 113.311 70.2638C113.389 70.5453 113.531 70.8051 113.723 71.0236C113.916 71.2422 114.156 71.4136 114.424 71.5251C114.693 71.6367 114.983 71.6853 115.272 71.6674C115.553 71.6806 115.834 71.6379 116.099 71.5417C116.364 71.4455 116.607 71.2977 116.815 71.1068C117.023 70.916 117.191 70.6857 117.311 70.4291C117.431 70.1726 117.499 69.8948 117.512 69.6117C117.525 69.3286 117.483 69.0456 117.387 68.779C117.292 68.5124 117.145 68.2673 116.955 68.0578C116.766 67.8483 116.537 67.6784 116.283 67.5579C116.028 67.4374 115.753 67.3686 115.472 67.3554C115.187 67.3064 114.894 67.3239 114.617 67.4065C114.34 67.4892 114.085 67.6347 113.872 67.832C113.66 68.0293 113.495 68.2732 113.39 68.5447Z" fill="#605DEC"/>
</svg>
